<svg width="44" height="13" viewBox="0 0 44 13" fill="none" xmlns="http://www.w3.org/2000/svg">
<path d="M15.075 8.31726V5.29484H15.7735C16.2978 5.29484 16.7444 5.1074 17.1134 4.73253C17.4824 4.35765 17.6669 3.90663 17.6669 3.37947V2.21531C17.6669 1.66764 17.5044 1.21662 17.1793 0.862245C16.8308 0.4903 16.3622 0.304327 15.7735 0.304327H13.8713V8.31726H15.075ZM15.8043 4.09993H15.075V1.53878H15.8043C16.0152 1.53878 16.1828 1.60247 16.3073 1.72987C16.4318 1.85727 16.494 2.0264 16.494 2.23727V3.40582C16.494 3.59619 16.4274 3.75946 16.2941 3.89565C16.1609 4.03183 15.9976 4.09993 15.8043 4.09993ZM19.5858 8.31726L19.8801 6.47657H21.1409L21.4265 8.31726H22.6917L21.3518 0.304327H19.6868L18.3294 8.31726H19.5858ZM20.9608 5.29923H20.0646L20.5127 2.14062L20.9608 5.29923ZM25.3881 8.31726V5.29484H26.0866C26.6108 5.29484 27.0574 5.1074 27.4265 4.73253C27.7955 4.35765 27.98 3.90663 27.98 3.37947V2.21531C27.98 1.66764 27.8174 1.21662 27.4924 0.862245C27.1438 0.4903 26.6753 0.304327 26.0866 0.304327H24.1844V8.31726H25.3881ZM26.1173 4.09993H25.3881V1.53878H26.1173C26.3282 1.53878 26.4959 1.60247 26.6203 1.72987C26.7448 1.85727 26.807 2.0264 26.807 2.23727V3.40582C26.807 3.59619 26.7404 3.75946 26.6072 3.89565C26.4739 4.03183 26.3106 4.09993 26.1173 4.09993ZM32.8554 8.31726V7.10917H30.6237V4.91703H32.2535V3.70455H30.6237V1.51242H32.8554V0.304327H29.42V8.31726H32.8554ZM35.3673 8.31726V5.29484H36.0614C36.0994 5.29484 36.136 5.29337 36.1712 5.29044L36.9092 8.31726H38.214L37.3178 4.81599C37.7483 4.42648 37.9636 3.94763 37.9636 3.37947V2.21531C37.9636 1.63835 37.8244 1.18733 37.5462 0.862245C37.2328 0.4903 36.7394 0.304327 36.0658 0.304327H34.1636V8.31726H35.3673ZM36.0965 4.09993H35.3673V1.53878H36.0965C36.5563 1.53878 36.7862 1.77161 36.7862 2.23727V3.40582C36.7862 3.59619 36.7196 3.75946 36.5863 3.89565C36.4531 4.03183 36.2898 4.09993 36.0965 4.09993ZM43.1772 8.31726V7.11796H40.9543L43.1772 1.51242V0.304327H39.654V1.51242H41.8812L39.654 7.11796V8.31726H43.1772Z" fill="#04091E"/>
<path d="M14.7634 12.4218V12.2457H13.8912V10.4842H13.6781V12.4218H14.7634ZM15.5675 12.4673C15.7076 12.4673 15.8289 12.4394 15.9311 12.3835C16.0334 12.3276 16.1158 12.2504 16.1783 12.1519L16.0249 12.0496C15.9794 12.1254 15.9193 12.1846 15.8445 12.2272C15.7697 12.2698 15.6754 12.2911 15.5618 12.2911C15.4216 12.2911 15.3108 12.2428 15.2294 12.1462C15.1479 12.0496 15.1034 11.9332 15.0958 11.7968H16.1897C16.1916 11.7778 16.1925 11.7504 16.1925 11.7144C16.1925 11.5894 16.1651 11.4762 16.1101 11.3749C16.0552 11.2735 15.9794 11.1935 15.8828 11.1348C15.7862 11.0761 15.6783 11.0467 15.559 11.0467C15.432 11.0467 15.3189 11.077 15.2194 11.1376C15.12 11.1982 15.0423 11.2825 14.9865 11.3905C14.9306 11.4985 14.9026 11.6206 14.9026 11.757C14.9026 11.8934 14.9311 12.0155 14.9879 12.1235C15.0447 12.2315 15.1233 12.3158 15.2237 12.3764C15.3241 12.437 15.4387 12.4673 15.5675 12.4673ZM15.9993 11.6377H15.1072C15.128 11.5183 15.1778 11.4194 15.2564 11.3408C15.335 11.2622 15.4358 11.2229 15.559 11.2229C15.6859 11.2229 15.7862 11.2574 15.8601 11.3266C15.934 11.3957 15.9804 11.4994 15.9993 11.6377ZM17.0562 12.4673C17.1509 12.4673 17.2381 12.446 17.3176 12.4034C17.3972 12.3607 17.4644 12.3016 17.5193 12.2258V12.4218H17.7125V11.0922H17.5193V11.2911C17.4644 11.2134 17.3967 11.1533 17.3162 11.1106C17.2357 11.068 17.1472 11.0467 17.0506 11.0467C16.9237 11.0467 16.8105 11.077 16.711 11.1376C16.6116 11.1982 16.5339 11.2821 16.4781 11.3891C16.4222 11.4961 16.3942 11.6178 16.3942 11.7542C16.3942 11.8924 16.4227 12.0155 16.4795 12.1235C16.5363 12.2315 16.6149 12.3158 16.7153 12.3764C16.8157 12.437 16.9293 12.4673 17.0562 12.4673ZM17.0506 12.2911C16.9615 12.2911 16.882 12.2684 16.8119 12.223C16.7418 12.1775 16.6869 12.114 16.6471 12.0326C16.6073 11.9511 16.5874 11.8583 16.5874 11.7542C16.5874 11.6519 16.6073 11.5605 16.6471 11.48C16.6869 11.3995 16.7418 11.3365 16.8119 11.2911C16.882 11.2456 16.9615 11.2229 17.0506 11.2229C17.1415 11.2229 17.2224 11.2456 17.2935 11.2911C17.3645 11.3365 17.4199 11.4 17.4597 11.4814C17.4995 11.5629 17.5193 11.6547 17.5193 11.757C17.5193 11.8593 17.4995 11.9511 17.4597 12.0326C17.4199 12.114 17.3645 12.1775 17.2935 12.223C17.2224 12.2684 17.1415 12.2911 17.0506 12.2911ZM18.6501 12.4673C18.7448 12.4673 18.832 12.446 18.9115 12.4034C18.9911 12.3607 19.0583 12.3016 19.1132 12.2258V12.4218H19.3064V10.3592H19.1132V11.2911C19.0583 11.2134 18.9906 11.1533 18.9101 11.1106C18.8296 11.068 18.741 11.0467 18.6444 11.0467C18.5175 11.0467 18.4044 11.077 18.3049 11.1376C18.2055 11.1982 18.1278 11.2821 18.0719 11.3891C18.0161 11.4961 17.9881 11.6178 17.9881 11.7542C17.9881 11.8924 18.0165 12.0155 18.0734 12.1235C18.1302 12.2315 18.2088 12.3158 18.3092 12.3764C18.4096 12.437 18.5232 12.4673 18.6501 12.4673ZM18.6444 12.2911C18.5554 12.2911 18.4759 12.2684 18.4058 12.223C18.3357 12.1775 18.2808 12.114 18.241 12.0326C18.2012 11.9511 18.1813 11.8583 18.1813 11.7542C18.1813 11.6519 18.2012 11.5605 18.241 11.48C18.2808 11.3995 18.3357 11.3365 18.4058 11.2911C18.4759 11.2456 18.5554 11.2229 18.6444 11.2229C18.7354 11.2229 18.8163 11.2456 18.8874 11.2911C18.9584 11.3365 19.0138 11.4 19.0536 11.4814C19.0933 11.5629 19.1132 11.6547 19.1132 11.757C19.1132 11.8593 19.0933 11.9511 19.0536 12.0326C19.0138 12.114 18.9584 12.1775 18.8874 12.223C18.8163 12.2684 18.7354 12.2911 18.6444 12.2911ZM19.8661 10.8336C19.9078 10.8336 19.9438 10.8185 19.9741 10.7882C20.0044 10.7579 20.0196 10.7219 20.0196 10.6802C20.0196 10.6366 20.0044 10.6002 19.9741 10.5708C19.9438 10.5415 19.9078 10.5268 19.8661 10.5268C19.8226 10.5268 19.7861 10.5415 19.7568 10.5708C19.7274 10.6002 19.7127 10.6357 19.7127 10.6774C19.7127 10.7209 19.7274 10.7579 19.7568 10.7882C19.7861 10.8185 19.8226 10.8336 19.8661 10.8336ZM19.9627 12.4218V11.0922H19.7695V12.4218H19.9627ZM20.619 12.4218V11.757C20.619 11.5941 20.6531 11.4644 20.7213 11.3678C20.7895 11.2712 20.8918 11.2229 21.0282 11.2229C21.263 11.2229 21.3805 11.3545 21.3805 11.6178V12.4218H21.5737V11.5326C21.5737 11.4322 21.5505 11.345 21.5041 11.2712C21.4577 11.1973 21.3951 11.1414 21.3165 11.1035C21.2379 11.0657 21.1522 11.0467 21.0594 11.0467C20.9609 11.0467 20.8743 11.0699 20.7995 11.1163C20.7246 11.1627 20.6645 11.2286 20.619 11.3138V11.0922H20.4258V12.4218H20.619ZM22.6022 12.9901C22.7158 12.9901 22.8171 12.9635 22.9062 12.9105C22.9952 12.8575 23.0643 12.7841 23.1136 12.6903C23.1628 12.5966 23.1874 12.49 23.1874 12.3707V11.0922H22.9942V11.2911C22.9393 11.2134 22.8716 11.1533 22.7911 11.1106C22.7106 11.068 22.6221 11.0467 22.5255 11.0467C22.3985 11.0467 22.2854 11.077 22.1859 11.1376C22.0865 11.1982 22.0088 11.2821 21.953 11.3891C21.8971 11.4961 21.8691 11.6178 21.8691 11.7542C21.8691 11.8924 21.8976 12.0155 21.9544 12.1235C22.0112 12.2315 22.0898 12.3158 22.1902 12.3764C22.2906 12.437 22.4042 12.4673 22.5311 12.4673C22.6258 12.4673 22.713 12.446 22.7925 12.4034C22.8721 12.3607 22.9393 12.3016 22.9942 12.2258V12.3707C22.9942 12.4995 22.9578 12.6056 22.8849 12.6889C22.8119 12.7722 22.7177 12.8139 22.6022 12.8139H22.051V12.9901H22.6022ZM22.5255 12.2911C22.4364 12.2911 22.3569 12.2684 22.2868 12.223C22.2167 12.1775 22.1618 12.114 22.122 12.0326C22.0822 11.9511 22.0623 11.8583 22.0623 11.7542C22.0623 11.6519 22.0822 11.5605 22.122 11.48C22.1618 11.3995 22.2167 11.3365 22.2868 11.2911C22.3569 11.2456 22.4364 11.2229 22.5255 11.2229C22.6164 11.2229 22.6973 11.2456 22.7684 11.2911C22.8394 11.3365 22.8948 11.4 22.9346 11.4814C22.9744 11.5629 22.9942 11.6547 22.9942 11.757C22.9942 11.8593 22.9744 11.9511 22.9346 12.0326C22.8948 12.114 22.8394 12.1775 22.7684 12.223C22.6973 12.2684 22.6164 12.2911 22.5255 12.2911ZM24.4404 12.4218V11.6803H24.8524C25.0323 11.6803 25.1767 11.6273 25.2856 11.5212C25.3945 11.4151 25.449 11.2693 25.449 11.0837C25.449 10.8961 25.3969 10.7493 25.2927 10.6433C25.1886 10.5372 25.0493 10.4842 24.8751 10.4842H24.2273V12.4218H24.4404ZM24.8467 11.5041H24.4404V10.6603H24.8467C24.9736 10.6603 25.0702 10.6963 25.1365 10.7683C25.2028 10.8403 25.2359 10.9454 25.2359 11.0837C25.2359 11.2219 25.2028 11.3266 25.1365 11.3976C25.0702 11.4686 24.9736 11.5041 24.8467 11.5041ZM26.2786 12.4673C26.3733 12.4673 26.4604 12.446 26.54 12.4034C26.6196 12.3607 26.6868 12.3016 26.7417 12.2258V12.4218H26.9349V11.0922H26.7417V11.2911C26.6868 11.2134 26.6191 11.1533 26.5386 11.1106C26.4581 11.068 26.3695 11.0467 26.2729 11.0467C26.146 11.0467 26.0329 11.077 25.9334 11.1376C25.834 11.1982 25.7563 11.2821 25.7004 11.3891C25.6446 11.4961 25.6166 11.6178 25.6166 11.7542C25.6166 11.8924 25.645 12.0155 25.7019 12.1235C25.7587 12.2315 25.8373 12.3158 25.9377 12.3764C26.0381 12.437 26.1517 12.4673 26.2786 12.4673ZM26.2729 12.2911C26.1839 12.2911 26.1044 12.2684 26.0343 12.223C25.9642 12.1775 25.9093 12.114 25.8695 12.0326C25.8297 11.9511 25.8098 11.8583 25.8098 11.7542C25.8098 11.6519 25.8297 11.5605 25.8695 11.48C25.9093 11.3995 25.9642 11.3365 26.0343 11.2911C26.1044 11.2456 26.1839 11.2229 26.2729 11.2229C26.3638 11.2229 26.4448 11.2456 26.5158 11.2911C26.5869 11.3365 26.6423 11.4 26.6821 11.4814C26.7218 11.5629 26.7417 11.6547 26.7417 11.757C26.7417 11.8593 26.7218 11.9511 26.6821 12.0326C26.6423 12.114 26.5869 12.1775 26.5158 12.223C26.4448 12.2684 26.3638 12.2911 26.2729 12.2911ZM27.4889 12.9901V12.223C27.5439 12.3006 27.6116 12.3607 27.6921 12.4034C27.7726 12.446 27.8611 12.4673 27.9577 12.4673C28.0846 12.4673 28.1978 12.437 28.2973 12.3764C28.3967 12.3158 28.4743 12.232 28.5302 12.1249C28.5861 12.0179 28.614 11.8962 28.614 11.7598C28.614 11.6216 28.5856 11.4985 28.5288 11.3905C28.472 11.2825 28.3934 11.1982 28.293 11.1376C28.1926 11.077 28.079 11.0467 27.9521 11.0467C27.8573 11.0467 27.7702 11.068 27.6907 11.1106C27.6111 11.1533 27.5439 11.2125 27.4889 11.2882V11.0922H27.2957V12.9901H27.4889ZM27.9577 12.2911C27.8668 12.2911 27.7858 12.2684 27.7148 12.223C27.6438 12.1775 27.5884 12.114 27.5486 12.0326C27.5088 11.9511 27.4889 11.8593 27.4889 11.757C27.4889 11.6547 27.5088 11.5629 27.5486 11.4814C27.5884 11.4 27.6438 11.3365 27.7148 11.2911C27.7858 11.2456 27.8668 11.2229 27.9577 11.2229C28.0468 11.2229 28.1263 11.2456 28.1964 11.2911C28.2665 11.3365 28.3214 11.4 28.3612 11.4814C28.401 11.5629 28.4208 11.6557 28.4208 11.7598C28.4208 11.8621 28.401 11.9535 28.3612 12.034C28.3214 12.1145 28.2665 12.1775 28.1964 12.223C28.1263 12.2684 28.0468 12.2911 27.9577 12.2911ZM29.4692 12.4673C29.6094 12.4673 29.7306 12.4394 29.8329 12.3835C29.9352 12.3276 30.0176 12.2504 30.0801 12.1519L29.9266 12.0496C29.8812 12.1254 29.8211 12.1846 29.7462 12.2272C29.6714 12.2698 29.5772 12.2911 29.4635 12.2911C29.3234 12.2911 29.2126 12.2428 29.1311 12.1462C29.0497 12.0496 29.0052 11.9332 28.9976 11.7968H30.0914C30.0933 11.7778 30.0943 11.7504 30.0943 11.7144C30.0943 11.5894 30.0668 11.4762 30.0119 11.3749C29.957 11.2735 29.8812 11.1935 29.7846 11.1348C29.688 11.0761 29.58 11.0467 29.4607 11.0467C29.3338 11.0467 29.2206 11.077 29.1212 11.1376C29.0217 11.1982 28.9441 11.2825 28.8882 11.3905C28.8323 11.4985 28.8044 11.6206 28.8044 11.757C28.8044 11.8934 28.8328 12.0155 28.8896 12.1235C28.9465 12.2315 29.0251 12.3158 29.1254 12.3764C29.2258 12.437 29.3404 12.4673 29.4692 12.4673ZM29.9011 11.6377H29.009C29.0298 11.5183 29.0795 11.4194 29.1581 11.3408C29.2367 11.2622 29.3376 11.2229 29.4607 11.2229C29.5876 11.2229 29.688 11.2574 29.7619 11.3266C29.8357 11.3957 29.8821 11.4994 29.9011 11.6377ZM30.5716 12.4218V11.7854C30.5716 11.668 30.5929 11.5662 30.6355 11.48C30.6781 11.3938 30.7345 11.328 30.8046 11.2825C30.8746 11.2371 30.9504 11.2143 31.0319 11.2143C31.0792 11.2143 31.1228 11.2238 31.1625 11.2428V11.0666C31.1209 11.0533 31.0773 11.0467 31.0319 11.0467C30.9334 11.0467 30.8448 11.0742 30.7662 11.1291C30.6876 11.184 30.6227 11.2607 30.5716 11.3592V11.0922H30.3784V12.4218H30.5716ZM32.7422 12.4673C32.8975 12.4673 33.0316 12.4285 33.1443 12.3508C33.257 12.2731 33.3474 12.1604 33.4156 12.0127L33.2366 11.9047C33.1722 12.0316 33.1026 12.1249 33.0278 12.1846C32.9529 12.2443 32.8483 12.2741 32.7138 12.2741C32.6059 12.2741 32.5112 12.2414 32.4297 12.1761C32.3483 12.1107 32.2858 12.0165 32.2422 11.8934C32.1986 11.7703 32.1768 11.6244 32.1768 11.4558C32.1768 11.1982 32.2247 10.997 32.3203 10.8521C32.416 10.7072 32.5481 10.6347 32.7167 10.6347C32.8341 10.6347 32.9335 10.6589 33.015 10.7072C33.0964 10.7555 33.1675 10.8355 33.2281 10.9473L33.3985 10.8478C33.3341 10.719 33.2446 10.6191 33.13 10.5481C33.0155 10.4771 32.8777 10.4416 32.7167 10.4416C32.5594 10.4416 32.4235 10.4818 32.309 10.5623C32.1944 10.6428 32.1063 10.7593 32.0447 10.9118C31.9832 11.0642 31.9524 11.2465 31.9524 11.4587C31.9524 11.6689 31.9841 11.8493 32.0476 11.9999C32.111 12.1505 32.2019 12.266 32.3203 12.3465C32.4387 12.427 32.5793 12.4673 32.7422 12.4673ZM34.2736 12.4673C34.4005 12.4673 34.5137 12.437 34.6131 12.3764C34.7126 12.3158 34.7902 12.2315 34.8461 12.1235C34.902 12.0155 34.9299 11.8934 34.9299 11.757C34.9299 11.6206 34.9015 11.4985 34.8447 11.3905C34.7879 11.2825 34.7093 11.1982 34.6089 11.1376C34.5085 11.077 34.3948 11.0467 34.2679 11.0467C34.141 11.0467 34.0279 11.077 33.9284 11.1376C33.829 11.1982 33.7513 11.2821 33.6954 11.3891C33.6396 11.4961 33.6116 11.6178 33.6116 11.7542C33.6116 11.8905 33.64 12.0132 33.6969 12.1221C33.7537 12.231 33.8323 12.3158 33.9327 12.3764C34.0331 12.437 34.1467 12.4673 34.2736 12.4673ZM34.2679 12.2911C34.1789 12.2911 34.0994 12.2684 34.0293 12.223C33.9592 12.1775 33.9043 12.114 33.8645 12.0326C33.8247 11.9511 33.8048 11.8583 33.8048 11.7542C33.8048 11.6519 33.8247 11.5605 33.8645 11.48C33.9043 11.3995 33.9592 11.3365 34.0293 11.2911C34.0994 11.2456 34.1789 11.2229 34.2679 11.2229C34.3588 11.2229 34.4398 11.2456 34.5108 11.2911C34.5819 11.3365 34.6373 11.4 34.6771 11.4814C34.7168 11.5629 34.7367 11.6547 34.7367 11.757C34.7367 11.8593 34.7168 11.9511 34.6771 12.0326C34.6373 12.114 34.5819 12.1775 34.5108 12.223C34.4398 12.2684 34.3588 12.2911 34.2679 12.2911ZM35.3959 12.4218V11.757C35.3959 11.5941 35.4248 11.4644 35.4825 11.3678C35.5403 11.2712 35.6269 11.2229 35.7425 11.2229C35.8277 11.2229 35.8969 11.2536 35.9499 11.3152C36.0029 11.3768 36.0294 11.4776 36.0294 11.6178V12.4218H36.2226V11.6718C36.2321 11.5335 36.2657 11.4241 36.3235 11.3436C36.3813 11.2631 36.4622 11.2229 36.5664 11.2229C36.6517 11.2229 36.7208 11.2536 36.7738 11.3152C36.8269 11.3768 36.8534 11.4776 36.8534 11.6178V12.4218H37.0466V11.5326C37.0466 11.381 37.0058 11.2622 36.9244 11.176C36.843 11.0898 36.7407 11.0467 36.6176 11.0467C36.5229 11.0467 36.4395 11.0732 36.3675 11.1263C36.2956 11.1793 36.2387 11.2532 36.1971 11.3479C36.1687 11.2513 36.1185 11.1769 36.0465 11.1248C35.9745 11.0728 35.8902 11.0467 35.7936 11.0467C35.7065 11.0467 35.6293 11.0685 35.5621 11.1121C35.4948 11.1556 35.4394 11.2181 35.3959 11.2996V11.0922H35.2027V12.4218H35.3959ZM37.5864 12.9901V12.223C37.6413 12.3006 37.709 12.3607 37.7895 12.4034C37.87 12.446 37.9586 12.4673 38.0552 12.4673C38.1821 12.4673 38.2953 12.437 38.3947 12.3764C38.4941 12.3158 38.5718 12.232 38.6277 12.1249C38.6835 12.0179 38.7115 11.8962 38.7115 11.7598C38.7115 11.6216 38.6831 11.4985 38.6263 11.3905C38.5694 11.2825 38.4908 11.1982 38.3904 11.1376C38.2901 11.077 38.1764 11.0467 38.0495 11.0467C37.9548 11.0467 37.8677 11.068 37.7881 11.1106C37.7086 11.1533 37.6413 11.2125 37.5864 11.2882V11.0922H37.3932V12.9901H37.5864ZM38.0552 12.2911C37.9643 12.2911 37.8833 12.2684 37.8123 12.223C37.7412 12.1775 37.6858 12.114 37.6461 12.0326C37.6063 11.9511 37.5864 11.8593 37.5864 11.757C37.5864 11.6547 37.6063 11.5629 37.6461 11.4814C37.6858 11.4 37.7412 11.3365 37.8123 11.2911C37.8833 11.2456 37.9643 11.2229 38.0552 11.2229C38.1442 11.2229 38.2238 11.2456 38.2938 11.2911C38.3639 11.3365 38.4188 11.4 38.4586 11.4814C38.4984 11.5629 38.5183 11.6557 38.5183 11.7598C38.5183 11.8621 38.4984 11.9535 38.4586 12.034C38.4188 12.1145 38.3639 12.1775 38.2938 12.223C38.2238 12.2684 38.1442 12.2911 38.0552 12.2911ZM39.5638 12.4673C39.6585 12.4673 39.7457 12.446 39.8252 12.4034C39.9048 12.3607 39.972 12.3016 40.0269 12.2258V12.4218H40.2201V11.0922H40.0269V11.2911C39.972 11.2134 39.9043 11.1533 39.8238 11.1106C39.7433 11.068 39.6548 11.0467 39.5582 11.0467C39.4312 11.0467 39.3181 11.077 39.2186 11.1376C39.1192 11.1982 39.0415 11.2821 38.9857 11.3891C38.9298 11.4961 38.9018 11.6178 38.9018 11.7542C38.9018 11.8924 38.9303 12.0155 38.9871 12.1235C39.0439 12.2315 39.1225 12.3158 39.2229 12.3764C39.3233 12.437 39.4369 12.4673 39.5638 12.4673ZM39.5582 12.2911C39.4691 12.2911 39.3896 12.2684 39.3195 12.223C39.2494 12.1775 39.1945 12.114 39.1547 12.0326C39.1149 11.9511 39.095 11.8583 39.095 11.7542C39.095 11.6519 39.1149 11.5605 39.1547 11.48C39.1945 11.3995 39.2494 11.3365 39.3195 11.2911C39.3896 11.2456 39.4691 11.2229 39.5582 11.2229C39.6491 11.2229 39.73 11.2456 39.8011 11.2911C39.8721 11.3365 39.9275 11.4 39.9673 11.4814C40.0071 11.5629 40.0269 11.6547 40.0269 11.757C40.0269 11.8593 40.0071 11.9511 39.9673 12.0326C39.9275 12.114 39.8721 12.1775 39.8011 12.223C39.73 12.2684 39.6491 12.2911 39.5582 12.2911ZM40.7713 12.4218V11.757C40.7713 11.5941 40.8054 11.4644 40.8736 11.3678C40.9418 11.2712 41.0441 11.2229 41.1804 11.2229C41.4153 11.2229 41.5328 11.3545 41.5328 11.6178V12.4218H41.726V11.5326C41.726 11.4322 41.7027 11.345 41.6563 11.2712C41.6099 11.1973 41.5474 11.1414 41.4688 11.1035C41.3902 11.0657 41.3045 11.0467 41.2117 11.0467C41.1132 11.0467 41.0266 11.0699 40.9517 11.1163C40.8769 11.1627 40.8168 11.2286 40.7713 11.3138V11.0922H40.5781V12.4218H40.7713ZM42.4817 12.9901L43.2005 11.0922H43.0187L42.5953 12.1945L42.155 11.0922H41.9532L42.4987 12.4474L42.2885 12.9901H42.4817Z" fill="#04091E"/>
<path fill-rule="evenodd" clip-rule="evenodd" d="M6.98254 2.16124V11.3789C6.25316 11.8281 5.38484 12.1981 4.42539 12.441C3.63319 12.6418 2.85469 12.7366 2.12701 12.7366C1.42541 12.7366 0.771077 12.6486 0.195343 12.4816V3.26395C0.195652 3.26395 0.196194 3.26418 0.196503 3.26418C0.410876 3.32622 0.636079 3.37745 0.870798 3.41725C1.08795 3.45417 1.31316 3.4813 1.54509 3.49802C1.73479 3.51217 1.92897 3.51924 2.12701 3.51924C2.855 3.51924 3.63319 3.42409 4.42539 3.22353C5.38484 2.98036 6.25316 2.61064 6.98254 2.16124ZM5.63379 4.27734C5.57678 4.29675 5.51947 4.31575 5.46188 4.33434L5.63378 4.33424L5.63379 4.27734Z" fill="#04091E"/>
<path fill-rule="evenodd" clip-rule="evenodd" d="M9.50821 0.109768V10.2905C8.69402 10.7866 7.72473 11.1953 6.65372 11.4635C5.76941 11.6853 4.90038 11.7901 4.08809 11.7901C3.30491 11.7901 2.57449 11.6928 1.93181 11.5083V1.32769C1.93215 1.32769 1.93276 1.32795 1.9331 1.32795C2.1724 1.39646 2.42379 1.45305 2.6858 1.49701C2.92821 1.53779 3.1796 1.56775 3.4385 1.58621C3.65026 1.60184 3.86702 1.60965 4.08809 1.60965C4.90073 1.60965 5.76941 1.50456 6.65372 1.28304C7.72473 1.01447 8.69402 0.606124 9.50821 0.109768Z" fill="#04091E"/>
</svg>
