<svg width="41" height="11" viewBox="0 0 41 11" fill="none" xmlns="http://www.w3.org/2000/svg">
<path d="M0.256272 9.91415C0.600139 9.89182 0.847991 9.8427 0.999828 9.76678C1.26778 9.62834 1.40175 9.37602 1.40175 9.00982V2.24414C1.40175 1.89134 1.27447 1.64572 1.01992 1.50728C0.872553 1.4269 0.618002 1.37107 0.256272 1.33981V0.99148H4.44966C6.14219 0.99148 7.43281 1.44253 8.3215 2.34462C9.12981 3.16632 9.53397 4.26938 9.53397 5.65378C9.53397 6.89527 9.12758 7.94696 8.31481 8.80886C7.39932 9.77794 6.15783 10.2625 4.59033 10.2625H0.256272V9.91415ZM3.61902 8.99643C3.63242 9.27777 3.68377 9.48096 3.77309 9.60601C3.86687 9.73105 4.06337 9.79357 4.36257 9.79357C5.17535 9.79357 5.84299 9.50776 6.36548 8.93614C6.88798 8.36005 7.14923 7.257 7.14923 5.62698C7.14923 4.6579 7.00856 3.82503 6.72721 3.12837C6.2717 2.00745 5.50359 1.44699 4.42286 1.44699C4.0656 1.44699 3.83338 1.52291 3.7262 1.67475C3.65475 1.773 3.61902 1.96279 3.61902 2.24414V8.99643Z" fill="#04091E"/>
<path d="M10.2842 7.12079C10.2842 6.16511 10.5767 5.36796 11.1618 4.72935C11.7512 4.09075 12.4903 3.77144 13.379 3.77144C14.2856 3.77144 15.0269 4.09744 15.603 4.74945C16.1835 5.40146 16.4738 6.1919 16.4738 7.12079C16.4738 8.03628 16.188 8.82449 15.6164 9.48543C15.0448 10.1419 14.299 10.4701 13.379 10.4701C12.4859 10.4701 11.7468 10.1508 11.1618 9.51223C10.5767 8.86915 10.2842 8.07201 10.2842 7.12079ZM12.3005 7.12079C12.3005 8.08094 12.3497 8.75304 12.4479 9.1371C12.6042 9.73105 12.9146 10.028 13.379 10.028C13.8211 10.028 14.1114 9.80027 14.2499 9.34476C14.3883 8.88925 14.4575 8.14792 14.4575 7.12079C14.4575 6.09812 14.3838 5.35903 14.2365 4.90352C14.0935 4.44354 13.81 4.21355 13.3857 4.21355C12.9213 4.21355 12.6109 4.51053 12.4546 5.10448C12.3519 5.50194 12.3005 6.17404 12.3005 7.12079Z" fill="#04091E"/>
<path d="M17.0901 9.93424C17.3536 9.90298 17.5367 9.84046 17.6394 9.74668C17.7421 9.6529 17.7979 9.47203 17.8069 9.20409L17.8203 8.80216V5.07099C17.8203 4.78518 17.7711 4.59091 17.6729 4.4882C17.5746 4.38549 17.3804 4.31627 17.0901 4.28054V3.94561H19.6959V5.0241C19.9862 4.6445 20.2742 4.34306 20.56 4.11977C20.8458 3.89648 21.1763 3.78484 21.5514 3.78484C21.8328 3.78484 22.0851 3.87639 22.3084 4.05948C22.5361 4.23812 22.65 4.5016 22.65 4.84993C22.65 5.11788 22.5696 5.33894 22.4089 5.5131C22.2526 5.68727 22.0471 5.77435 21.7926 5.77435C21.5023 5.77435 21.25 5.63814 21.0356 5.36573C20.8257 5.09332 20.6784 4.95711 20.5935 4.95711C20.4104 4.95711 20.2251 5.07099 20.0375 5.29874C19.8544 5.52203 19.7629 5.84357 19.7629 6.26336V8.85575C19.7629 9.31126 19.8276 9.59708 19.9571 9.71319C20.0911 9.82483 20.3546 9.89852 20.7476 9.93424V10.2625H17.0901V9.93424Z" fill="#04091E"/>
<path d="M23.1256 9.93424C23.407 9.91191 23.6079 9.84939 23.7285 9.74668C23.8536 9.64397 23.9161 9.42961 23.9161 9.10361V4.64227H23.1256V4.03939H23.9161V3.53029C23.9161 2.89168 24.0166 2.36695 24.2175 1.95609C24.5971 1.18798 25.2982 0.803917 26.3209 0.803917C26.8657 0.803917 27.3257 0.928959 27.7008 1.17904C28.0804 1.42466 28.2702 1.75067 28.2702 2.15705C28.2702 2.4116 28.1898 2.61703 28.0291 2.77333C27.8728 2.92964 27.6629 3.00779 27.3994 3.00779C27.1806 3.00779 26.993 2.93634 26.8367 2.79343C26.6804 2.65052 26.6023 2.47859 26.6023 2.27763C26.6023 2.12579 26.6514 1.96726 26.7496 1.80202C26.8523 1.63232 26.9037 1.52961 26.9037 1.49388C26.9037 1.38224 26.8635 1.31079 26.7831 1.27952C26.7027 1.24826 26.6156 1.23263 26.5219 1.23263C26.2986 1.23263 26.1266 1.29739 26.0061 1.4269C25.8855 1.5564 25.8252 1.83552 25.8252 2.26423V4.03939H27.0176V4.64227H25.8252V8.85575C25.8252 9.32913 25.8922 9.6194 26.0262 9.72658C26.1646 9.83376 26.4683 9.90298 26.9372 9.93424V10.2625H23.1256V9.93424Z" fill="#04091E"/>
<path d="M30.3133 3.94561V8.6012C30.3133 8.87808 30.3468 9.08128 30.4138 9.21078C30.5299 9.43854 30.7599 9.55242 31.1038 9.55242C31.3226 9.55242 31.537 9.4832 31.7469 9.34476C31.8674 9.26884 32.0193 9.14156 32.2024 8.96293V5.07099C32.2024 4.78518 32.1443 4.58645 32.0282 4.4748C31.9166 4.35869 31.6888 4.29394 31.3449 4.28054V3.94561H34.078V8.88255C34.078 9.16836 34.1316 9.36709 34.2388 9.47873C34.3459 9.58591 34.5558 9.6529 34.8684 9.67969V9.99453C34.0199 10.0749 33.484 10.1352 33.2608 10.1754C33.0419 10.2111 32.6891 10.3049 32.2024 10.4567V9.55242C31.8764 9.83376 31.6062 10.0325 31.3918 10.1486C31.0167 10.354 30.6259 10.4567 30.2195 10.4567C29.7774 10.4567 29.3643 10.3161 28.9803 10.0347C28.6007 9.75338 28.4109 9.25321 28.4109 8.53422V5.07099C28.4109 4.78071 28.364 4.59091 28.2702 4.5016C28.1764 4.41228 27.9956 4.3386 27.7276 4.28054V3.94561H30.3133Z" fill="#04091E"/>
<path d="M35.4914 8.18588H35.8733C36.0072 8.84236 36.2573 9.3068 36.6235 9.57921C36.9897 9.84716 37.3648 9.98113 37.7489 9.98113C38.1017 9.98113 38.3607 9.90298 38.5259 9.74668C38.6912 9.58591 38.7738 9.37602 38.7738 9.117C38.7738 8.87138 38.6845 8.66149 38.5058 8.48732C38.4076 8.39354 38.2491 8.29306 38.0302 8.18588L37.012 7.69018C36.4761 7.4267 36.0921 7.14089 35.8599 6.83275C35.6232 6.52461 35.5048 6.16064 35.5048 5.74086C35.5048 5.20943 35.6902 4.75168 36.0608 4.36762C36.4315 3.9791 36.9495 3.78484 37.6149 3.78484C37.9052 3.78484 38.2133 3.83396 38.5393 3.93221C38.8653 4.02599 39.0685 4.07288 39.1489 4.07288C39.2606 4.07288 39.3387 4.05055 39.3834 4.0059C39.4325 3.95677 39.4727 3.88978 39.5039 3.80493H39.8054V5.78775H39.4571C39.3275 5.32331 39.1154 4.95041 38.8207 4.66907C38.5259 4.38772 38.1821 4.24705 37.7891 4.24705C37.4854 4.24705 37.2576 4.3319 37.1058 4.5016C36.9584 4.6713 36.8848 4.8544 36.8848 5.05089C36.8848 5.21166 36.9517 5.37243 37.0857 5.5332C37.2152 5.69843 37.4608 5.86813 37.8226 6.0423L38.5728 6.40403C39.0373 6.62732 39.3767 6.84391 39.591 7.0538C39.9483 7.41107 40.1269 7.85095 40.1269 8.37345C40.1269 8.88255 39.9416 9.35816 39.5709 9.80027C39.2047 10.2379 38.6532 10.4567 37.9164 10.4567C37.7333 10.4567 37.5479 10.4366 37.3604 10.3965C37.1773 10.3607 36.9495 10.296 36.6771 10.2022L36.4426 10.1218C36.3578 10.0905 36.3042 10.0727 36.2819 10.0682C36.264 10.0638 36.2394 10.0615 36.2082 10.0615C36.1323 10.0615 36.0653 10.0928 36.0072 10.1553C35.9536 10.2134 35.8911 10.3138 35.8197 10.4567H35.4914V8.18588Z" fill="#04091E"/>
</svg>
