<svg width="50" height="13" viewBox="0 0 50 13" fill="none" xmlns="http://www.w3.org/2000/svg">
<path d="M16.4158 8.0702V3.94543C16.4158 3.70393 16.3965 3.20967 16.3579 2.46264L16.8747 4.27387L18.1015 8.0702H19.1158L20.3426 4.27387C20.3608 4.21698 20.3807 4.15281 20.4023 4.08134L20.4289 3.99208C20.5342 3.63652 20.6744 3.1267 20.8497 2.46264C20.8207 3.17103 20.8054 3.57192 20.8038 3.6653C20.8022 3.75867 20.8014 3.85205 20.8014 3.94543V8.0702H22.0669V1.26482H20.1687L18.9177 5.25917L18.6134 6.35074L18.3816 5.43788L18.2754 5.07081L17.0582 1.26482H15.1504V8.0702H16.4158ZM24.6182 8.1668C25.3845 8.1668 25.9577 7.82387 26.3376 7.13802H26.3666C26.3988 7.46324 26.4962 7.70956 26.6588 7.877C26.8214 8.04444 27.0734 8.12816 27.4147 8.12816C27.5113 8.12816 27.5958 8.12494 27.6683 8.1185C27.7407 8.11206 27.8091 8.10401 27.8735 8.09435C27.9379 8.08469 28.0023 8.07181 28.0667 8.05571C28.1311 8.03961 28.2036 8.0219 28.2841 8.00258V7.26843C28.1875 7.28775 28.0877 7.29741 27.9846 7.29741C27.8301 7.29741 27.7198 7.24186 27.6538 7.13078C27.5878 7.01969 27.5548 6.81763 27.5548 6.52462V4.62162C27.5548 4.02271 27.3761 3.56065 27.0186 3.23543C26.6612 2.91021 26.1525 2.74761 25.4924 2.74761C24.8387 2.74761 24.3227 2.87882 23.9444 3.14125C23.566 3.40367 23.3334 3.78926 23.2465 4.29802L24.6616 4.36564C24.6906 4.1016 24.7639 3.91243 24.8814 3.79812C24.9989 3.68381 25.1833 3.62666 25.4344 3.62666C25.7049 3.62666 25.8997 3.70957 26.0188 3.8754C26.138 4.04123 26.1976 4.2948 26.1976 4.63611V4.90176L25.0722 4.92108C24.4024 4.92752 23.8913 5.07242 23.5387 5.35577C23.1861 5.63913 23.0098 6.05128 23.0098 6.59224C23.0098 7.09133 23.1515 7.47853 23.4348 7.75384C23.7182 8.02914 24.1126 8.1668 24.6182 8.1668ZM25.0529 7.22013C24.8629 7.22013 24.7107 7.15976 24.5964 7.03901C24.4821 6.91826 24.425 6.73392 24.425 6.48598C24.425 6.29278 24.4596 6.13822 24.5288 6.0223C24.598 5.90639 24.6987 5.82025 24.8307 5.7639C24.9627 5.70755 25.1865 5.67294 25.502 5.66006L26.1976 5.6504V5.91605C26.1976 6.14466 26.1476 6.36121 26.0478 6.56567C25.948 6.77014 25.8104 6.93033 25.6349 7.04625C25.4594 7.16217 25.2654 7.22013 25.0529 7.22013ZM30.2606 8.0702V5.5055C30.2606 4.96777 30.3548 4.56205 30.5432 4.28836C30.7315 4.01466 30.9948 3.87781 31.3329 3.87781C31.5003 3.87781 31.6935 3.90196 31.9125 3.95026V2.81523C31.8062 2.76693 31.6661 2.74278 31.4923 2.74278C31.2797 2.74278 31.1026 2.779 30.961 2.85145C30.8193 2.9239 30.6969 3.03499 30.5939 3.18472C30.4909 3.33444 30.3733 3.59285 30.2413 3.95992H30.222C30.222 3.86332 30.2139 3.66771 30.1978 3.37308C30.1817 3.07846 30.1689 2.90216 30.1592 2.84421H28.8648C28.8744 2.99232 28.8833 3.16218 28.8913 3.35376C28.8994 3.54535 28.9034 3.78443 28.9034 4.07101V8.0702H30.2606ZM34.0822 8.15714C34.5105 8.15714 34.892 8.1024 35.2269 7.99292V7.15251C35.0305 7.19759 34.8792 7.22013 34.7729 7.22013C34.57 7.22013 34.4203 7.15976 34.3237 7.03901C34.2271 6.91826 34.1788 6.7307 34.1788 6.47632V3.76189H35.1689V2.84421H34.1788V1.6174H33.3287L32.9037 2.84421H32.1744V3.76189H32.8361V6.84339C32.8361 7.28453 32.944 7.61377 33.1597 7.83112C33.3754 8.04846 33.6829 8.15714 34.0822 8.15714ZM37.387 1.90237V0.902571H36.0298V1.90237H37.387ZM37.387 8.0702V2.84421H36.0298V8.0702H37.387ZM40.1267 8.0702V5.26883C40.1267 4.8277 40.2273 4.46626 40.4285 4.18451C40.6298 3.90277 40.8946 3.76189 41.2231 3.76189C41.8445 3.76189 42.1552 4.22074 42.1552 5.13843V8.0702H43.5076V4.75203C43.5076 4.09516 43.3595 3.59607 43.0633 3.25475C42.767 2.91343 42.342 2.74278 41.7882 2.74278C41.405 2.74278 41.0749 2.83294 40.798 3.01325C40.5211 3.19357 40.2909 3.48337 40.1073 3.88264H40.088C40.088 3.78282 40.08 3.60009 40.0639 3.33444C40.0478 3.0688 40.0349 2.90538 40.0252 2.84421H38.7308C38.7405 2.98588 38.7493 3.14608 38.7574 3.32478C38.7654 3.50349 38.7695 3.73291 38.7695 4.01305V8.0702H40.1267ZM47.1119 8.1668C47.9426 8.1668 48.593 7.92611 49.0632 7.44472C49.5333 6.96334 49.7683 6.29922 49.7683 5.45237C49.7683 4.57976 49.5437 3.91082 49.0945 3.44553C48.6454 2.98025 47.9941 2.74761 47.1408 2.74761C46.3069 2.74761 45.658 2.9883 45.1944 3.46968C44.7307 3.95107 44.4989 4.61196 44.4989 5.45237C44.4989 6.296 44.7307 6.95931 45.1944 7.44231C45.658 7.9253 46.2972 8.1668 47.1119 8.1668ZM47.0974 7.23945C46.7174 7.23945 46.4268 7.08731 46.2256 6.78302C46.0243 6.47873 45.9237 6.03518 45.9237 5.45237C45.9237 4.27065 46.3358 3.67979 47.1602 3.67979C47.5466 3.67979 47.8412 3.81985 48.044 4.09999C48.2469 4.38013 48.3483 4.83092 48.3483 5.45237C48.3483 6.64376 47.9313 7.23945 47.0974 7.23945Z" fill="#04091E"/>
<path opacity="0.595853" d="M28.604 12.3319C28.707 12.3319 28.8024 12.3154 28.8903 12.2825C28.9781 12.2495 29.052 12.2056 29.112 12.1507C29.1719 12.0958 29.2218 12.0401 29.2615 11.9835C29.3012 11.9269 29.3337 11.8682 29.359 11.8074L29.06 11.7137C29.0229 11.8066 28.9633 11.8851 28.8814 11.9493C28.7995 12.0135 28.7053 12.0456 28.5989 12.0456C28.435 12.0456 28.3041 11.9772 28.2062 11.8403C28.1082 11.7035 28.0592 11.5177 28.0592 11.2829C28.0592 11.0515 28.1078 10.867 28.2049 10.7293C28.302 10.5916 28.4334 10.5228 28.5989 10.5228C28.7729 10.5228 28.9139 10.6199 29.022 10.8142L29.3083 10.7204C29.2492 10.5836 29.1593 10.4688 29.0385 10.3758C28.9177 10.2829 28.7729 10.2365 28.604 10.2365C28.3421 10.2365 28.1285 10.3307 27.9629 10.519C27.7974 10.7073 27.7146 10.962 27.7146 11.2829C27.7146 11.6089 27.7987 11.8653 27.9667 12.0519C28.1348 12.2386 28.3472 12.3319 28.604 12.3319ZM30.1825 12.3319C30.2838 12.3319 30.3746 12.315 30.4549 12.2812C30.5351 12.2474 30.5997 12.2039 30.6487 12.1507C30.6977 12.0975 30.7382 12.0359 30.7703 11.9658C30.8024 11.8957 30.8248 11.8268 30.8375 11.7593C30.8501 11.6917 30.8565 11.6241 30.8565 11.5566C30.8565 11.3387 30.799 11.1546 30.6842 11.0042C30.5693 10.8539 30.4021 10.7787 30.1825 10.7787C29.9612 10.7787 29.7931 10.8539 29.6783 11.0042C29.5634 11.1546 29.506 11.3387 29.506 11.5566C29.506 11.6275 29.5123 11.6972 29.525 11.7656C29.5376 11.834 29.5605 11.9033 29.5934 11.9734C29.6263 12.0435 29.6677 12.1043 29.7175 12.1558C29.7674 12.2073 29.8324 12.2495 29.9126 12.2825C29.9929 12.3154 30.0828 12.3319 30.1825 12.3319ZM30.1825 12.0583C30.0896 12.0583 30.0085 12.0169 29.9392 11.9341C29.87 11.8513 29.8354 11.7255 29.8354 11.5566C29.8354 11.3843 29.8704 11.2572 29.9405 11.1752C30.0106 11.0933 30.0913 11.0524 30.1825 11.0524C30.2737 11.0524 30.3539 11.0933 30.4232 11.1752C30.4924 11.2572 30.5271 11.3843 30.5271 11.5566C30.5271 11.7255 30.4924 11.8513 30.4232 11.9341C30.3539 12.0169 30.2737 12.0583 30.1825 12.0583ZM31.4671 12.2863V10.2162H31.1478V12.2863H31.4671ZM32.435 12.3319C32.5363 12.3319 32.6271 12.315 32.7074 12.2812C32.7876 12.2474 32.8522 12.2039 32.9012 12.1507C32.9502 12.0975 32.9907 12.0359 33.0228 11.9658C33.0549 11.8957 33.0773 11.8268 33.0899 11.7593C33.1026 11.6917 33.109 11.6241 33.109 11.5566C33.109 11.3387 33.0515 11.1546 32.9367 11.0042C32.8218 10.8539 32.6546 10.7787 32.435 10.7787C32.2137 10.7787 32.0456 10.8539 31.9308 11.0042C31.8159 11.1546 31.7585 11.3387 31.7585 11.5566C31.7585 11.6275 31.7648 11.6972 31.7775 11.7656C31.7901 11.834 31.8129 11.9033 31.8459 11.9734C31.8788 12.0435 31.9202 12.1043 31.97 12.1558C32.0199 12.2073 32.0849 12.2495 32.1651 12.2825C32.2454 12.3154 32.3353 12.3319 32.435 12.3319ZM32.435 12.0583C32.3421 12.0583 32.261 12.0169 32.1917 11.9341C32.1225 11.8513 32.0879 11.7255 32.0879 11.5566C32.0879 11.3843 32.1229 11.2572 32.193 11.1752C32.2631 11.0933 32.3438 11.0524 32.435 11.0524C32.5262 11.0524 32.6064 11.0933 32.6757 11.1752C32.7449 11.2572 32.7796 11.3843 32.7796 11.5566C32.7796 11.7255 32.7449 11.8513 32.6757 11.9341C32.6064 12.0169 32.5262 12.0583 32.435 12.0583ZM33.6942 12.2863V11.5414C33.6942 11.3995 33.7234 11.2859 33.7817 11.2006C33.8399 11.1153 33.924 11.0726 34.0338 11.0726C34.0963 11.0726 34.1596 11.0828 34.2238 11.103V10.8117C34.1748 10.7897 34.1115 10.7787 34.0338 10.7787C33.951 10.7787 33.8796 10.799 33.8197 10.8395C33.7597 10.8801 33.7137 10.9274 33.6816 10.9814V10.8243H33.3725V12.2863H33.6942ZM34.9155 12.3319C35.0996 12.3319 35.2419 12.2901 35.3424 12.2065C35.4429 12.1229 35.4932 12.0211 35.4932 11.9012C35.4932 11.7069 35.3429 11.5616 35.0422 11.4654C35.0337 11.462 35.0202 11.4578 35.0017 11.4527C34.9307 11.429 34.8758 11.4096 34.837 11.3944C34.7981 11.3792 34.7605 11.3551 34.7242 11.3222C34.6879 11.2893 34.6697 11.2517 34.6697 11.2094C34.6697 11.1588 34.6904 11.1178 34.7318 11.0866C34.7732 11.0553 34.8327 11.0397 34.9104 11.0397C35.0523 11.0397 35.1731 11.1081 35.2728 11.2449L35.4856 11.1157C35.4332 11.0177 35.3538 10.9371 35.2474 10.8737C35.141 10.8104 35.0278 10.7787 34.9079 10.7787C34.7474 10.7787 34.6131 10.8176 34.505 10.8953C34.3969 10.973 34.3429 11.076 34.3429 11.2044C34.3429 11.2703 34.3547 11.3281 34.3784 11.3779C34.402 11.4278 34.4366 11.4692 34.4822 11.5021C34.5278 11.535 34.5713 11.5612 34.6127 11.5806C34.6541 11.6001 34.7052 11.6199 34.766 11.6402C34.7728 11.6419 34.7838 11.6453 34.799 11.6503C34.8834 11.6773 34.9468 11.6989 34.989 11.7149C35.0312 11.731 35.0713 11.755 35.1093 11.7871C35.1473 11.8192 35.1663 11.8564 35.1663 11.8986C35.1663 11.951 35.1431 11.9928 35.0967 12.024C35.0502 12.0553 34.9873 12.0709 34.9079 12.0709C34.7457 12.0709 34.614 11.9966 34.5126 11.8479L34.2821 11.9822C34.3412 12.0903 34.4261 12.1756 34.5367 12.2381C34.6474 12.3006 34.7736 12.3319 34.9155 12.3319ZM36.9704 12.3319C37.0717 12.3319 37.1625 12.315 37.2427 12.2812C37.323 12.2474 37.3876 12.2039 37.4366 12.1507C37.4856 12.0975 37.5261 12.0359 37.5582 11.9658C37.5903 11.8957 37.6127 11.8268 37.6253 11.7593C37.638 11.6917 37.6443 11.6241 37.6443 11.5566C37.6443 11.3387 37.5869 11.1546 37.472 11.0042C37.3572 10.8539 37.19 10.7787 36.9704 10.7787C36.7491 10.7787 36.581 10.8539 36.4662 11.0042C36.3513 11.1546 36.2939 11.3387 36.2939 11.5566C36.2939 11.6275 36.3002 11.6972 36.3129 11.7656C36.3255 11.834 36.3483 11.9033 36.3813 11.9734C36.4142 12.0435 36.4556 12.1043 36.5054 12.1558C36.5553 12.2073 36.6203 12.2495 36.7005 12.2825C36.7808 12.3154 36.8707 12.3319 36.9704 12.3319ZM36.9704 12.0583C36.8775 12.0583 36.7964 12.0169 36.7271 11.9341C36.6579 11.8513 36.6232 11.7255 36.6232 11.5566C36.6232 11.3843 36.6583 11.2572 36.7284 11.1752C36.7985 11.0933 36.8792 11.0524 36.9704 11.0524C37.0616 11.0524 37.1418 11.0933 37.2111 11.1752C37.2803 11.2572 37.315 11.3843 37.315 11.5566C37.315 11.7255 37.2803 11.8513 37.2111 11.9341C37.1418 12.0169 37.0616 12.0583 36.9704 12.0583ZM38.3411 12.2863V11.098H38.6452V10.8243H38.3411V10.69C38.3411 10.6191 38.3534 10.5676 38.3779 10.5355C38.4024 10.5034 38.4408 10.4873 38.4931 10.4873H38.6781V10.2162H38.4475C38.3107 10.2162 38.2047 10.2538 38.1296 10.329C38.0544 10.4041 38.0168 10.5169 38.0168 10.6672V10.8243H37.7938V11.098H38.0168V12.2863H38.3411ZM39.5801 12.8842C39.7068 12.8842 39.8128 12.8538 39.8981 12.793C39.9834 12.7322 40.0531 12.6275 40.1071 12.4789L40.7127 10.8243H40.363L40.1325 11.5768C40.0784 11.7711 40.0472 11.8834 40.0387 11.9138H40.0286C40.0066 11.8277 39.9745 11.7154 39.9323 11.5768L39.6815 10.8243H39.3293L39.8766 12.2508L39.8284 12.3952C39.7997 12.4763 39.7613 12.5333 39.7131 12.5663C39.665 12.5992 39.6029 12.6157 39.5269 12.6157H39.4813V12.8842H39.5801ZM41.4982 12.3319C41.5995 12.3319 41.6903 12.315 41.7705 12.2812C41.8508 12.2474 41.9154 12.2039 41.9644 12.1507C42.0133 12.0975 42.0539 12.0359 42.086 11.9658C42.1181 11.8957 42.1405 11.8268 42.1531 11.7593C42.1658 11.6917 42.1721 11.6241 42.1721 11.5566C42.1721 11.3387 42.1147 11.1546 41.9998 11.0042C41.885 10.8539 41.7177 10.7787 41.4982 10.7787C41.2769 10.7787 41.1088 10.8539 40.9939 11.0042C40.8791 11.1546 40.8216 11.3387 40.8216 11.5566C40.8216 11.6275 40.828 11.6972 40.8407 11.7656C40.8533 11.834 40.8761 11.9033 40.9091 11.9734C40.942 12.0435 40.9834 12.1043 41.0332 12.1558C41.083 12.2073 41.1481 12.2495 41.2283 12.2825C41.3085 12.3154 41.3985 12.3319 41.4982 12.3319ZM41.4982 12.0583C41.4053 12.0583 41.3242 12.0169 41.2549 11.9341C41.1857 11.8513 41.151 11.7255 41.151 11.5566C41.151 11.3843 41.1861 11.2572 41.2562 11.1752C41.3263 11.0933 41.4069 11.0524 41.4982 11.0524C41.5894 11.0524 41.6696 11.0933 41.7389 11.1752C41.8081 11.2572 41.8427 11.3843 41.8427 11.5566C41.8427 11.7255 41.8081 11.8513 41.7389 11.9341C41.6696 12.0169 41.5894 12.0583 41.4982 12.0583ZM42.9094 12.3319C43.0091 12.3319 43.0923 12.3091 43.159 12.2635C43.2257 12.2179 43.2709 12.1689 43.2946 12.1165H43.2971V12.2863H43.6062V10.8243H43.287V11.6427C43.287 11.7559 43.2599 11.8534 43.2059 11.9354C43.1518 12.0173 43.0767 12.0583 42.9804 12.0583C42.8199 12.0583 42.7397 11.9442 42.7397 11.7162V10.8243H42.4179V11.7567C42.4179 11.8665 42.4331 11.9611 42.4635 12.0405C42.4939 12.1199 42.5345 12.1794 42.5851 12.2191C42.6358 12.2588 42.6877 12.2876 42.741 12.3053C42.7942 12.323 42.8503 12.3319 42.9094 12.3319ZM44.2777 12.2863V11.5414C44.2777 11.3995 44.3068 11.2859 44.3651 11.2006C44.4234 11.1153 44.5074 11.0726 44.6172 11.0726C44.6797 11.0726 44.743 11.0828 44.8072 11.103V10.8117C44.7582 10.7897 44.6949 10.7787 44.6172 10.7787C44.5344 10.7787 44.4631 10.799 44.4031 10.8395C44.3431 10.8801 44.2971 10.9274 44.265 10.9814V10.8243H43.9559V12.2863H44.2777ZM45.955 12.2863V10.2162H45.6357V12.2863H45.955ZM46.6923 10.6064V10.2542H46.3477V10.6064H46.6923ZM46.6796 12.2863V10.8243H46.3629V12.2863H46.6796ZM47.493 12.2863V11.098H47.797V10.8243H47.493V10.69C47.493 10.6191 47.5052 10.5676 47.5297 10.5355C47.5542 10.5034 47.5926 10.4873 47.645 10.4873H47.83V10.2162H47.5994C47.4626 10.2162 47.3566 10.2538 47.2814 10.329C47.2062 10.4041 47.1687 10.5169 47.1687 10.6672V10.8243H46.9457V11.098H47.1687V12.2863H47.493ZM48.6154 12.3319C48.7742 12.3319 48.9068 12.2956 49.0132 12.2229C49.1196 12.1503 49.1965 12.0599 49.2438 11.9518L48.9752 11.8606C48.9431 11.9231 48.8962 11.9742 48.8346 12.0139C48.7729 12.0536 48.7016 12.0735 48.6205 12.0735C48.5039 12.0735 48.4123 12.0333 48.3456 11.9531C48.2789 11.8729 48.2455 11.777 48.2455 11.6655H49.259C49.2641 11.6233 49.2666 11.5802 49.2666 11.5363C49.2666 11.3116 49.2041 11.1292 49.0791 10.989C48.9541 10.8488 48.7953 10.7787 48.6028 10.7787C48.4068 10.7787 48.2442 10.8484 48.115 10.9877C47.9858 11.1271 47.9212 11.3142 47.9212 11.549C47.9212 11.7871 47.9858 11.9772 48.115 12.1191C48.2442 12.2609 48.411 12.3319 48.6154 12.3319ZM48.9397 11.44H48.2506C48.2523 11.3319 48.2848 11.2377 48.3481 11.1575C48.4115 11.0773 48.4963 11.0372 48.6028 11.0372C48.7092 11.0372 48.7919 11.0764 48.8511 11.155C48.9102 11.2335 48.9397 11.3285 48.9397 11.44Z" fill="#04091E"/>
<path d="M3.13723 2.08546L3.13723 12.1764C3.13719 12.273 3.08745 12.3623 3.00648 12.4113C2.9255 12.4603 2.82536 12.4616 2.74319 12.4148L0.355025 11.0511C0.270732 11.0031 0.218418 10.9118 0.218369 10.8128L0.218369 0.721821C0.218417 0.625249 0.268151 0.535903 0.349128 0.486919C0.430104 0.437936 0.530246 0.436619 0.612416 0.483457L3.00058 1.8471C3.08487 1.89515 3.13719 1.9864 3.13723 2.08546Z" fill="#04091E"/>
<path d="M7.02836 2.0855L7.02836 12.1765C7.02831 12.273 6.97857 12.3624 6.8976 12.4114C6.81662 12.4603 6.71648 12.4617 6.63431 12.4148L4.24615 11.0512C4.16185 11.0031 4.10954 10.9119 4.10949 10.8128L4.10949 0.72186C4.10954 0.625288 4.15927 0.535942 4.24025 0.486959C4.32122 0.437975 4.42137 0.436658 4.50354 0.483496L6.8917 1.84714C6.97599 1.89519 7.02831 1.98644 7.02836 2.0855Z" fill="#04091E"/>
<path d="M10.9195 2.0855V12.1765C10.9195 12.273 10.8697 12.3624 10.7888 12.4114C10.7078 12.4603 10.6076 12.4617 10.5255 12.4148L8.13731 11.0512C8.05302 11.0031 8.00071 10.9119 8.00066 10.8128L8.00066 0.72186C8.0007 0.625288 8.05044 0.535942 8.13142 0.486959C8.21239 0.437975 8.31253 0.436658 8.3947 0.483496L10.7829 1.84714C10.8672 1.89519 10.9195 1.98644 10.9195 2.0855Z" fill="#04091E"/>
</svg>
