<svg width="53" height="13" viewBox="0 0 53 13" fill="none" xmlns="http://www.w3.org/2000/svg">
<path d="M18.9023 8.49487C20.382 8.49487 21.3646 7.80825 21.3646 6.62444C21.3646 5.43637 20.3883 5.06456 19.451 4.78493L19.3431 4.75304C18.518 4.511 17.754 4.31932 17.754 3.67675C17.754 3.16771 18.1683 2.84808 18.8904 2.84808C19.5179 2.84808 19.9677 3.10852 20.169 3.66491L21.1278 3.28609C20.8556 2.45742 20.0387 1.99573 18.9023 1.99573C17.5291 1.99573 16.6412 2.65867 16.6412 3.73594C16.6412 5.87864 20.2281 5.20387 20.2281 6.70731C20.2281 7.28738 19.7191 7.61884 18.9378 7.61884C18.0736 7.61884 17.4935 7.24002 17.2923 6.60077L16.3334 6.97959C16.6649 7.97399 17.6119 8.49487 18.9023 8.49487ZM28.1202 10.4837V2.12595H27.185V3.28609C26.6878 2.4811 25.8592 1.99573 24.8174 1.99573C23.0417 1.99573 21.775 3.39263 21.775 5.25122C21.775 7.10981 23.0772 8.49487 24.8411 8.49487C25.8236 8.49487 26.6168 8.05686 27.114 7.33473V10.4837H28.1202ZM24.9595 7.60701C23.7046 7.60701 22.7694 6.60077 22.7694 5.25122C22.7694 3.88983 23.7046 2.88359 24.9595 2.88359C26.2498 2.88359 27.1495 3.86616 27.1495 5.25122C27.1495 6.63628 26.2616 7.60701 24.9595 7.60701ZM31.8098 8.49487C32.7332 8.49487 33.479 8.05686 33.8933 7.47679V8.36465H34.8522V2.12595H33.8459V6.04437C33.8341 6.83753 33.1238 7.59517 32.0702 7.59517C31.0048 7.60701 30.33 6.90856 30.33 5.85496V2.12595H29.3238V5.97334C29.3238 7.45311 30.2116 8.49487 31.8098 8.49487ZM38.814 8.49487C39.8676 8.49487 40.6844 7.99767 41.158 7.169V8.36465H42.0932V2.12595H41.158V3.33344C40.6844 2.52845 39.8676 2.05493 38.814 2.05493C37.0501 2.05493 35.7479 3.39263 35.7479 5.23938C35.7479 7.10981 37.0383 8.49487 38.814 8.49487ZM38.9324 7.60701C37.6775 7.60701 36.7423 6.60077 36.7423 5.23938C36.7423 3.90167 37.6775 2.88359 38.9324 2.88359C40.2346 2.88359 41.1224 3.85432 41.1224 5.23938C41.1224 6.63628 40.2227 7.60701 38.9324 7.60701ZM44.3858 8.36465V4.60012C44.3858 3.71226 45.179 2.94278 46.3154 2.93095V1.99573C45.4394 1.99573 44.7291 2.45742 44.3266 3.03749V2.12595H43.3796V8.36465H44.3858ZM49.4486 8.5067C50.9284 8.5067 51.7925 7.86744 52.2542 6.97959L51.3782 6.44687C51.0704 7.169 50.5022 7.55965 49.4841 7.55965C48.3358 7.55965 47.4243 6.77834 47.2467 5.6182H52.4318C52.4436 5.49982 52.4555 5.28673 52.4555 5.10916C52.4555 3.46366 51.2598 1.9839 49.3776 1.9839C47.6137 1.9839 46.2286 3.43999 46.2286 5.25122C46.2286 7.10981 47.5308 8.5067 49.4486 8.5067ZM51.4256 4.74218H47.2585C47.4479 3.55837 48.3595 2.85992 49.4131 2.85992C50.4548 2.85992 51.2717 3.57021 51.4256 4.74218Z" fill="#04091E"/>
<path d="M30.8032 12.1742C30.8356 12.1742 30.8698 12.1721 30.9059 12.168C30.9419 12.1638 30.9812 12.1576 31.0238 12.1492V12.041H30.9988C30.8813 12.041 30.7976 12.0269 30.7477 11.9987C30.6978 11.9705 30.6585 11.9176 30.6298 11.8399C30.6168 11.8075 30.5993 11.7421 30.5771 11.6436C30.5549 11.5451 30.5281 11.4704 30.4966 11.4195C30.4689 11.3733 30.4309 11.3347 30.3828 11.3037C30.3348 11.2727 30.2751 11.2475 30.2039 11.2281C30.3565 11.1948 30.4712 11.1386 30.5479 11.0595C30.6247 10.9805 30.6631 10.8794 30.6631 10.7564C30.6631 10.5835 30.6071 10.4551 30.4952 10.3714C30.3833 10.2877 30.2113 10.2459 29.9792 10.2459H29.255V10.3596L29.4159 10.3763L29.4645 10.4165V11.9814L29.4159 12.0216L29.255 12.0355V12.152H29.9306V12.0355L29.7683 12.0216L29.7197 11.9814V11.3058L29.7294 11.3044C29.7905 11.3016 29.8349 11.3002 29.8626 11.3002C29.993 11.3002 30.0904 11.3224 30.1546 11.3668C30.2189 11.4112 30.27 11.4912 30.3079 11.6068C30.3181 11.6373 30.3315 11.6836 30.3482 11.7455C30.3926 11.9176 30.4485 12.0332 30.516 12.0924C30.5484 12.1201 30.5879 12.1407 30.6346 12.1541C30.6813 12.1675 30.7375 12.1742 30.8032 12.1742ZM29.8765 11.1712C29.8524 11.1712 29.8275 11.171 29.8016 11.1705C29.7757 11.1701 29.7484 11.1694 29.7197 11.1684V10.3763H29.8571C30.0411 10.3763 30.1743 10.4082 30.2566 10.472C30.3389 10.5358 30.3801 10.6385 30.3801 10.78C30.3801 10.9169 30.3401 11.0163 30.2601 11.0783C30.1801 11.1402 30.0522 11.1712 29.8765 11.1712ZM31.5381 12.177C31.6296 12.177 31.7207 12.1626 31.8114 12.134C31.902 12.1053 31.9894 12.0632 32.0736 12.0077V11.851C31.9885 11.9074 31.9096 11.949 31.837 11.9758C31.7644 12.0027 31.6944 12.0161 31.6269 12.0161C31.4807 12.0161 31.3647 11.964 31.2787 11.86C31.1926 11.7559 31.1496 11.6147 31.1496 11.4362V11.4043H32.0694C32.0713 11.3932 32.0724 11.3816 32.0729 11.3696C32.0733 11.3576 32.0736 11.34 32.0736 11.3169C32.0736 11.1439 32.0276 11.0073 31.9355 10.9069C31.8435 10.8066 31.7189 10.7564 31.5617 10.7564C31.3693 10.7564 31.2118 10.8237 31.0893 10.9583C30.9668 11.0928 30.9055 11.2665 30.9055 11.4792C30.9055 11.6864 30.964 11.8544 31.081 11.9835C31.198 12.1125 31.3503 12.177 31.5381 12.177ZM31.8197 11.285H31.1635C31.1718 11.1694 31.2105 11.0739 31.2794 10.9985C31.3483 10.9231 31.4299 10.8854 31.5242 10.8854C31.6204 10.8854 31.6937 10.9159 31.7441 10.977C31.7945 11.038 31.8197 11.1259 31.8197 11.2406V11.285ZM32.5837 12.1714C32.6503 12.1714 32.7218 12.1564 32.7981 12.1263C32.8744 12.0963 32.9583 12.0498 33.0498 11.9869L33.0873 12.152H33.4868V12.0494L33.337 12.0355L33.2885 11.9897V11.1657C33.2885 11.0223 33.2547 10.9183 33.1872 10.8535C33.1197 10.7888 33.0115 10.7564 32.8626 10.7564C32.6933 10.7564 32.5553 10.7869 32.4485 10.848C32.3416 10.909 32.2882 10.9858 32.2882 11.0783C32.2882 11.1116 32.2945 11.1344 32.307 11.1469C32.3194 11.1594 32.3428 11.1657 32.377 11.1657H32.5726V10.927C32.6105 10.9122 32.6471 10.9011 32.6822 10.8938C32.7174 10.8864 32.753 10.8827 32.789 10.8827C32.8852 10.8827 32.9527 10.9058 32.9916 10.952C33.0304 10.9983 33.0498 11.081 33.0498 11.2003V11.2905C32.6956 11.3756 32.4688 11.4528 32.3694 11.5222C32.27 11.5916 32.2203 11.6868 32.2203 11.808C32.2203 11.9171 32.2533 12.005 32.3194 12.0716C32.3856 12.1381 32.4737 12.1714 32.5837 12.1714ZM32.6975 12.0188C32.6281 12.0188 32.5729 11.9978 32.5317 11.9557C32.4905 11.9136 32.47 11.857 32.47 11.7858C32.47 11.697 32.5072 11.6253 32.5816 11.5707C32.6561 11.5162 32.8122 11.4561 33.0498 11.3904V11.8912C32.9749 11.9337 32.9086 11.9657 32.8508 11.9869C32.793 12.0082 32.7419 12.0188 32.6975 12.0188ZM34.1912 12.152V12.0494L34.0289 12.0355L33.9776 11.9897V10.0614H33.8694L33.5225 10.1627V10.2514H33.7417V11.9897L33.6932 12.0355L33.5253 12.0494V12.152H34.1912ZM36.4046 12.152V11.6887H36.2575L36.209 11.9758L36.1687 12.0216H35.4071V11.2253H35.8732L35.9135 11.2683L35.9412 11.4736H36.0758V10.848H35.9412L35.9135 11.0547L35.8732 11.0949H35.4071V10.3763H36.0647L36.1035 10.4193L36.1438 10.6607H36.3033V10.2459H34.9424V10.3596L35.1033 10.3763L35.1519 10.4165V11.9814L35.1033 12.0216L34.9424 12.0355V12.152H36.4046ZM36.8787 12.177C37.0451 12.177 37.1753 12.1393 37.2692 12.0639C37.363 11.9885 37.41 11.8843 37.41 11.7511C37.41 11.7002 37.4007 11.6537 37.3822 11.6117C37.3637 11.5696 37.3369 11.5347 37.3018 11.5069C37.2537 11.4672 37.176 11.4228 37.0687 11.3737C37.0382 11.3599 37.0155 11.3492 37.0007 11.3418C36.9064 11.2965 36.8426 11.2554 36.8093 11.2184C36.776 11.1814 36.7593 11.1365 36.7593 11.0838C36.7593 11.0191 36.7802 10.9687 36.8218 10.9326C36.8634 10.8965 36.9212 10.8785 36.9952 10.8785C37.0294 10.8785 37.0636 10.8836 37.0978 10.8938C37.1321 10.9039 37.1681 10.9192 37.206 10.9395L37.2282 11.1407H37.3684V10.8188C37.3203 10.7985 37.2687 10.783 37.2137 10.7724C37.1586 10.7617 37.0992 10.7564 37.0354 10.7564C36.8754 10.7564 36.7515 10.7911 36.6636 10.8605C36.5758 10.9298 36.5318 11.0279 36.5318 11.1546C36.5318 11.2378 36.5575 11.3076 36.6088 11.364C36.6602 11.4205 36.757 11.4806 36.8995 11.5444C37.0252 11.6017 37.1048 11.6491 37.1381 11.6866C37.1714 11.724 37.188 11.7714 37.188 11.8288C37.188 11.8972 37.1637 11.9525 37.1152 11.9946C37.0666 12.0366 37.0021 12.0577 36.9217 12.0577C36.881 12.0577 36.8405 12.0521 36.8003 12.041C36.76 12.0299 36.72 12.0128 36.6803 11.9897L36.6456 11.7483H36.5096V12.1173C36.5624 12.1377 36.6199 12.1527 36.6824 12.1624C36.7448 12.1721 36.8102 12.177 36.8787 12.177ZM37.977 12.1603C38.0353 12.1603 38.0959 12.155 38.1587 12.1444C38.2216 12.1337 38.2854 12.1183 38.3502 12.0979V11.9925C38.315 12.0008 38.2811 12.0068 38.2482 12.0105C38.2154 12.0142 38.1837 12.0161 38.1532 12.0161C38.0644 12.0161 38.0029 11.995 37.9687 11.9529C37.9345 11.9109 37.9174 11.8283 37.9174 11.7053V10.9562H38.3502V10.823H37.9174V10.5206H37.8119L37.6898 10.7855L37.5026 10.8674V10.9562H37.6815V11.8732C37.6815 11.9823 37.7035 12.0574 37.7474 12.0986C37.7913 12.1398 37.8679 12.1603 37.977 12.1603ZM38.7688 12.1714C38.8354 12.1714 38.9068 12.1564 38.9831 12.1263C39.0594 12.0963 39.1433 12.0498 39.2349 11.9869L39.2724 12.152H39.6719V12.0494L39.5221 12.0355L39.4735 11.9897V11.1657C39.4735 11.0223 39.4398 10.9183 39.3722 10.8535C39.3047 10.7888 39.1965 10.7564 39.0476 10.7564C38.8784 10.7564 38.7403 10.7869 38.6335 10.848C38.5267 10.909 38.4733 10.9858 38.4733 11.0783C38.4733 11.1116 38.4795 11.1344 38.492 11.1469C38.5045 11.1594 38.5279 11.1657 38.5621 11.1657H38.7577V10.927C38.7956 10.9122 38.8321 10.9011 38.8673 10.8938C38.9024 10.8864 38.938 10.8827 38.9741 10.8827C39.0703 10.8827 39.1378 10.9058 39.1766 10.952C39.2155 10.9983 39.2349 11.081 39.2349 11.2003V11.2905C38.8807 11.3756 38.6539 11.4528 38.5544 11.5222C38.455 11.5916 38.4053 11.6868 38.4053 11.808C38.4053 11.9171 38.4384 12.005 38.5045 12.0716C38.5706 12.1381 38.6587 12.1714 38.7688 12.1714ZM38.8825 12.0188C38.8132 12.0188 38.7579 11.9978 38.7168 11.9557C38.6756 11.9136 38.655 11.857 38.655 11.7858C38.655 11.697 38.6922 11.6253 38.7667 11.5707C38.8411 11.5162 38.9972 11.4561 39.2349 11.3904V11.8912C39.16 11.9337 39.0936 11.9657 39.0358 11.9869C38.978 12.0082 38.9269 12.0188 38.8825 12.0188ZM40.1765 12.1603C40.2348 12.1603 40.2953 12.155 40.3582 12.1444C40.4211 12.1337 40.4849 12.1183 40.5497 12.0979V11.9925C40.5145 12.0008 40.4805 12.0068 40.4477 12.0105C40.4149 12.0142 40.3832 12.0161 40.3527 12.0161C40.2639 12.0161 40.2024 11.995 40.1682 11.9529C40.134 11.9109 40.1168 11.8283 40.1168 11.7053V10.9562H40.5497V10.823H40.1168V10.5206H40.0114L39.8893 10.7855L39.702 10.8674V10.9562H39.881V11.8732C39.881 11.9823 39.903 12.0574 39.9469 12.0986C39.9908 12.1398 40.0674 12.1603 40.1765 12.1603ZM41.2235 12.177C41.3151 12.177 41.4062 12.1626 41.4968 12.134C41.5875 12.1053 41.6748 12.0632 41.759 12.0077V11.851C41.6739 11.9074 41.5951 11.949 41.5225 11.9758C41.4499 12.0027 41.3798 12.0161 41.3123 12.0161C41.1662 12.0161 41.0501 11.964 40.9641 11.86C40.8781 11.7559 40.8351 11.6147 40.8351 11.4362V11.4043H41.7548C41.7567 11.3932 41.7579 11.3816 41.7583 11.3696C41.7588 11.3576 41.759 11.34 41.759 11.3169C41.759 11.1439 41.713 11.0073 41.621 10.9069C41.529 10.8066 41.4043 10.7564 41.2471 10.7564C41.0547 10.7564 40.8973 10.8237 40.7747 10.9583C40.6522 11.0928 40.5909 11.2665 40.5909 11.4792C40.5909 11.6864 40.6494 11.8544 40.7664 11.9835C40.8834 12.1125 41.0358 12.177 41.2235 12.177ZM41.5051 11.285H40.849C40.8573 11.1694 40.8959 11.0739 40.9648 10.9985C41.0337 10.9231 41.1153 10.8854 41.2096 10.8854C41.3058 10.8854 41.3791 10.9159 41.4295 10.977C41.4799 11.038 41.5051 11.1259 41.5051 11.2406V11.285ZM43.1636 12.1867C43.3855 12.1867 43.5636 12.1342 43.6977 12.0292C43.8318 11.9243 43.8988 11.7862 43.8988 11.6151C43.8988 11.5532 43.8884 11.4958 43.8676 11.4431C43.8468 11.3904 43.8156 11.3437 43.774 11.303C43.7009 11.2309 43.5816 11.1624 43.4161 11.0977C43.3846 11.0857 43.361 11.0764 43.3453 11.0699C43.177 10.9987 43.0686 10.9379 43.02 10.8875C42.9714 10.8371 42.9472 10.7735 42.9472 10.6968C42.9472 10.5913 42.9819 10.5079 43.0512 10.4464C43.1206 10.3848 43.2145 10.3541 43.3328 10.3541C43.3828 10.3541 43.429 10.359 43.4716 10.3687C43.5141 10.3784 43.5534 10.3934 43.5895 10.4138L43.6311 10.4609L43.6741 10.7314H43.8225V10.2917C43.7393 10.2649 43.6577 10.2447 43.5777 10.2313C43.4977 10.2179 43.4179 10.2112 43.3384 10.2112C43.1405 10.2112 42.9816 10.2614 42.8619 10.3617C42.7421 10.4621 42.6822 10.5936 42.6822 10.7564C42.6822 10.872 42.7136 10.9661 42.7765 11.0387C42.8394 11.1113 42.968 11.1897 43.1622 11.2739C43.1779 11.2803 43.2006 11.2901 43.2302 11.303C43.5021 11.4186 43.638 11.549 43.638 11.6942C43.638 11.7987 43.5994 11.8817 43.5222 11.9432C43.445 12.0047 43.3402 12.0355 43.208 12.0355C43.1451 12.0355 43.0868 12.0299 43.0332 12.0188C42.9795 12.0077 42.9319 11.9916 42.8903 11.9703L42.8528 11.9217L42.8195 11.5957H42.6517V12.0951C42.7192 12.1247 42.7966 12.1474 42.884 12.1631C42.9714 12.1788 43.0646 12.1867 43.1636 12.1867ZM44.7308 12.177C44.9232 12.177 45.0816 12.1106 45.206 11.9779C45.3304 11.8452 45.3926 11.6748 45.3926 11.4667C45.3926 11.2586 45.3306 11.0882 45.2067 10.9555C45.0828 10.8228 44.9241 10.7564 44.7308 10.7564C44.5366 10.7564 44.3782 10.8225 44.2557 10.9548C44.1332 11.087 44.0719 11.2577 44.0719 11.4667C44.0719 11.6757 44.1336 11.8464 44.2571 11.9786C44.3806 12.1109 44.5385 12.177 44.7308 12.177ZM44.7308 12.0549C44.6134 12.0549 44.5186 12.0015 44.4465 11.8947C44.3743 11.7879 44.3382 11.6452 44.3382 11.4667C44.3382 11.2882 44.3741 11.1455 44.4458 11.0387C44.5174 10.9319 44.6125 10.8785 44.7308 10.8785C44.8492 10.8785 44.9447 10.9321 45.0173 11.0394C45.0899 11.1467 45.1262 11.2891 45.1262 11.4667C45.1262 11.6461 45.0902 11.789 45.018 11.8954C44.9459 12.0017 44.8502 12.0549 44.7308 12.0549ZM46.1483 12.152V12.0494L45.986 12.0355L45.9346 11.9897V10.0614H45.8264L45.4796 10.1627V10.2514H45.6988V11.9897L45.6502 12.0355L45.4824 12.0494V12.152H46.1483ZM46.7666 12.1798C46.8341 12.1798 46.9056 12.1645 46.981 12.134C47.0563 12.1035 47.1384 12.0563 47.2272 11.9925V12.152H47.6476V12.0494L47.5144 12.0355L47.463 11.9897V10.7564H47.3548L47.0247 10.8618V10.9506H47.2272V11.9134C47.168 11.9421 47.1114 11.9633 47.0573 11.9772C47.0032 11.9911 46.9498 11.998 46.897 11.998C46.8027 11.998 46.7333 11.9737 46.6889 11.9252C46.6446 11.8766 46.6224 11.8006 46.6224 11.697V10.7564H46.5141L46.184 10.8618V10.9506H46.3865V11.7455C46.3865 11.8861 46.4191 11.9936 46.4843 12.0681C46.5495 12.1425 46.6436 12.1798 46.7666 12.1798ZM48.1771 12.1603C48.2354 12.1603 48.296 12.155 48.3589 12.1444C48.4217 12.1337 48.4856 12.1183 48.5503 12.0979V11.9925C48.5152 12.0008 48.4812 12.0068 48.4483 12.0105C48.4155 12.0142 48.3838 12.0161 48.3533 12.0161C48.2645 12.0161 48.203 11.995 48.1688 11.9529C48.1346 11.9109 48.1175 11.8283 48.1175 11.7053V10.9562H48.5503V10.823H48.1175V10.5206H48.012L47.89 10.7855L47.7027 10.8674V10.9562H47.8816V11.8732C47.8816 11.9823 47.9036 12.0574 47.9475 12.0986C47.9915 12.1398 48.068 12.1603 48.1771 12.1603ZM48.9231 10.4679C48.9694 10.4679 49.0084 10.4521 49.0403 10.4207C49.0722 10.3892 49.0882 10.3509 49.0882 10.3055C49.0882 10.2602 49.0722 10.2214 49.0403 10.189C49.0084 10.1566 48.9694 10.1405 48.9231 10.1405C48.8778 10.1405 48.8392 10.1564 48.8073 10.1883C48.7754 10.2202 48.7594 10.2593 48.7594 10.3055C48.7594 10.3509 48.7754 10.3892 48.8073 10.4207C48.8392 10.4521 48.8778 10.4679 48.9231 10.4679ZM49.2242 12.152V12.0494L49.0716 12.0355L49.023 11.9897V10.7717H48.912L48.586 10.8729V10.9617H48.7844V11.9897L48.7358 12.0355L48.586 12.0494V12.152H49.2242ZM49.9507 12.177C50.1431 12.177 50.3015 12.1106 50.4259 11.9779C50.5503 11.8452 50.6125 11.6748 50.6125 11.4667C50.6125 11.2586 50.5505 11.0882 50.4266 10.9555C50.3026 10.8228 50.144 10.7564 49.9507 10.7564C49.7565 10.7564 49.5981 10.8225 49.4756 10.9548C49.353 11.087 49.2918 11.2577 49.2918 11.4667C49.2918 11.6757 49.3535 11.8464 49.477 11.9786C49.6004 12.1109 49.7584 12.177 49.9507 12.177ZM49.9507 12.0549C49.8333 12.0549 49.7385 12.0015 49.6663 11.8947C49.5942 11.7879 49.5581 11.6452 49.5581 11.4667C49.5581 11.2882 49.594 11.1455 49.6656 11.0387C49.7373 10.9319 49.8323 10.8785 49.9507 10.8785C50.0691 10.8785 50.1646 10.9321 50.2372 11.0394C50.3098 11.1467 50.3461 11.2891 50.3461 11.4667C50.3461 11.6461 50.31 11.789 50.2379 11.8954C50.1657 12.0017 50.07 12.0549 49.9507 12.0549ZM51.3307 12.152V12.0494L51.1947 12.0355L51.1462 11.9897V11.038C51.2072 11.0066 51.2641 10.9832 51.3168 10.968C51.3695 10.9527 51.4186 10.9451 51.4639 10.9451C51.5675 10.9451 51.6412 10.9673 51.6851 11.0117C51.7291 11.0561 51.751 11.1314 51.751 11.2378V11.9897L51.7025 12.0355L51.5665 12.0494V12.152H52.188V12.0494L52.0354 12.0355L51.9869 11.9897V11.1892C51.9869 11.0487 51.954 10.9414 51.8884 10.8674C51.8227 10.7934 51.7279 10.7564 51.604 10.7564C51.5513 10.7564 51.4902 10.7691 51.4209 10.7946C51.3515 10.82 51.2599 10.8642 51.1462 10.927V10.7717H51.038L50.7078 10.8729V10.9617H50.9103V11.9897L50.8618 12.0355L50.7078 12.0494V12.152H51.3307Z" fill="#04091E"/>
<path fill-rule="evenodd" clip-rule="evenodd" d="M0.907608 0.787445H12.7457V12.6256H0.907608V0.787445ZM9.71832 3.81475L3.9344 3.81413V9.59858L3.93249 9.60038L3.93254 9.60079H9.72095L9.72049 3.81269L9.72023 3.81264L9.71832 3.81475Z" fill="#04091E"/>
</svg>
