<svg width="55" height="15" viewBox="0 0 55 15" fill="none" xmlns="http://www.w3.org/2000/svg">
<path fill-rule="evenodd" clip-rule="evenodd" d="M0.257996 7.02097V9.51647L7.36087 3.64635V1.15086L0.257996 7.02097Z" fill="#04091E"/>
<path fill-rule="evenodd" clip-rule="evenodd" d="M0.258057 11.9141V14.4095L7.36093 8.53942V6.04393L0.258057 11.9141Z" fill="#04091E"/>
<path fill-rule="evenodd" clip-rule="evenodd" d="M3.41599 7.02097V9.51646L10.5189 3.64635V1.15085L3.41599 7.02097Z" fill="#04091E"/>
<path fill-rule="evenodd" clip-rule="evenodd" d="M3.41599 11.9141V14.4095L10.5189 8.53942V6.04393L3.41599 11.9141Z" fill="#04091E"/>
<path d="M18.7885 9.66116C19.2124 9.66116 19.644 9.6207 20.0833 9.53977C20.5226 9.45885 20.9754 9.33746 21.4417 9.17561V6.41261L21.6267 6.25076L22.3145 6.19296V5.60915H18.8579V6.19296L19.7365 6.25076L19.9215 6.41261V8.82879C19.775 8.84035 19.6459 8.84902 19.5342 8.8548C19.4224 8.86059 19.3357 8.86348 19.2741 8.86348C18.3531 8.86348 17.6334 8.56579 17.1151 7.97041C16.5968 7.37504 16.3377 6.54941 16.3377 5.49354C16.3377 4.46464 16.591 3.65636 17.0978 3.06869C17.6045 2.48102 18.3011 2.18719 19.1874 2.18719C19.3646 2.18719 19.5342 2.2026 19.696 2.23343C19.8579 2.26426 20.0159 2.31243 20.17 2.37794L20.3492 2.59181L20.5747 3.84614H21.4417V1.83459C21.0024 1.70357 20.5737 1.6053 20.1556 1.53979C19.7375 1.47428 19.3319 1.44152 18.9388 1.44152C17.6363 1.44152 16.591 1.8105 15.803 2.54846C15.0149 3.28642 14.6209 4.26811 14.6209 5.49354C14.6209 6.73053 15.0063 7.73438 15.777 8.50509C16.5477 9.27581 17.5515 9.66116 18.7885 9.66116ZM25.5673 9.60914C26.4922 9.60914 27.234 9.33939 27.7928 8.79989C28.3515 8.26039 28.6309 7.54749 28.6309 6.66117C28.6309 5.72475 28.3631 4.98198 27.8274 4.43285C27.2918 3.88372 26.5693 3.60915 25.6598 3.60915C24.735 3.60915 23.9931 3.88564 23.4344 4.43863C22.8756 4.99161 22.5962 5.72475 22.5962 6.63805C22.5962 7.52822 22.8689 8.24594 23.4142 8.79122C23.9594 9.3365 24.6772 9.60914 25.5673 9.60914ZM25.602 8.98486C25.1743 8.98486 24.84 8.77484 24.5991 8.35481C24.3583 7.93477 24.2378 7.3471 24.2378 6.5918C24.2378 5.84807 24.3592 5.27003 24.602 4.8577C24.8448 4.44537 25.182 4.23921 25.6136 4.23921C26.049 4.23921 26.3891 4.44923 26.6338 4.86926C26.8785 5.2893 27.0008 5.87504 27.0008 6.62649C27.0008 7.38178 26.8795 7.96367 26.6367 8.37215C26.3939 8.78062 26.049 8.98486 25.602 8.98486ZM31.1901 9.51665C31.6563 9.51665 32.0542 9.4945 32.3837 9.45018C32.7132 9.40586 32.9858 9.33746 33.2016 9.24498C33.8105 8.97138 34.2739 8.58506 34.5918 8.08602C34.9097 7.58698 35.0687 6.9945 35.0687 6.30857C35.0687 5.51859 34.8509 4.87312 34.4155 4.37215C33.98 3.87119 33.4213 3.62071 32.7392 3.62071C32.481 3.62071 32.2112 3.66406 31.9299 3.75077C31.6486 3.83747 31.3461 3.97138 31.0224 4.1525V0.771006H30.4559L28.6987 1.32592V1.78834H29.5542V9.49353L30.8664 9.51665H31.1901ZM31.3981 8.8866C31.298 8.8866 31.2209 8.88563 31.1669 8.88371C31.113 8.88178 31.0648 8.87889 31.0224 8.87504V4.63805C31.1766 4.60722 31.3143 4.5841 31.4357 4.56869C31.5571 4.55327 31.6679 4.54556 31.7681 4.54556C32.3191 4.54556 32.743 4.72379 33.0398 5.08025C33.3365 5.4367 33.4848 5.94826 33.4848 6.61492C33.4848 7.39334 33.3163 7.96656 32.9791 8.33457C32.6419 8.70259 32.1149 8.8866 31.3981 8.8866ZM38.4428 9.60914C39.3677 9.60914 40.1095 9.33939 40.6683 8.79989C41.227 8.26039 41.5064 7.54749 41.5064 6.66117C41.5064 5.72475 41.2386 4.98198 40.7029 4.43285C40.1673 3.88372 39.4448 3.60915 38.5353 3.60915C37.6105 3.60915 36.8687 3.88564 36.3099 4.43863C35.7511 4.99161 35.4717 5.72475 35.4717 6.63805C35.4717 7.52822 35.7444 8.24594 36.2897 8.79122C36.8349 9.3365 37.5527 9.60914 38.4428 9.60914ZM38.4775 8.98486C38.0498 8.98486 37.7155 8.77484 37.4746 8.35481C37.2338 7.93477 37.1134 7.3471 37.1134 6.5918C37.1134 5.84807 37.2347 5.27003 37.4775 4.8577C37.7203 4.44537 38.0575 4.23921 38.4891 4.23921C38.9245 4.23921 39.2646 4.44923 39.5093 4.86926C39.754 5.2893 39.8764 5.87504 39.8764 6.62649C39.8764 7.38178 39.755 7.96367 39.5122 8.37215C39.2694 8.78062 38.9245 8.98486 38.4775 8.98486ZM44.7592 9.51665V8.98486L44.239 8.93862L44.0771 8.75943V4.85192C44.3083 4.78641 44.5174 4.73632 44.7043 4.70163C44.8912 4.66695 45.0559 4.64961 45.1985 4.64961C45.5684 4.64961 45.8382 4.75269 46.0078 4.95886C46.1773 5.16502 46.2621 5.48776 46.2621 5.92706V8.75943L46.1002 8.93862L45.5916 8.98486V9.51665H48.4875V8.98486L47.8632 8.93862L47.7072 8.75943V5.58603C47.7072 4.92321 47.5742 4.42996 47.3083 4.10626C47.0424 3.78256 46.6397 3.62071 46.1002 3.62071C45.8575 3.62071 45.5723 3.67851 45.2447 3.79412C44.9172 3.90973 44.528 4.09277 44.0771 4.34325V3.64383H43.5049L41.7997 4.19874V4.67273H42.6089V8.75943L42.4413 8.93862L41.8343 8.98486V9.51665H44.7592ZM50.2605 9.6207C50.5611 9.6207 50.8752 9.55904 51.2027 9.43573C51.5303 9.31242 51.8944 9.11396 52.2952 8.84035L52.4513 9.51665H54.5611V8.99642L53.931 8.93862L53.775 8.77099V5.70741C53.775 4.93285 53.6093 4.3895 53.2779 4.07736C52.9465 3.76522 52.3742 3.60915 51.5611 3.60915C50.8366 3.60915 50.2259 3.74595 49.7287 4.01955C49.2316 4.29316 48.9831 4.61493 48.9831 4.98487C48.9831 5.13516 49.0264 5.24499 49.1131 5.31435C49.1998 5.38371 49.3376 5.4184 49.5264 5.4184H50.6189V4.30857C50.7268 4.28545 50.827 4.26811 50.9195 4.25655C51.012 4.24499 51.1006 4.23921 51.1854 4.23921C51.5746 4.23921 51.8598 4.33747 52.0409 4.534C52.222 4.73054 52.3126 5.04267 52.3126 5.47042V5.82302C50.7596 6.17369 49.7711 6.49932 49.3472 6.7999C48.9234 7.10047 48.7114 7.52822 48.7114 8.08313C48.7114 8.534 48.8559 8.90297 49.1449 9.19006C49.4339 9.47715 49.8058 9.6207 50.2605 9.6207ZM51.1507 8.71319C50.881 8.71319 50.6671 8.63323 50.5091 8.4733C50.3511 8.31338 50.2721 8.09662 50.2721 7.82302C50.2721 7.47234 50.4147 7.19489 50.6998 6.99065C50.985 6.78641 51.5168 6.59758 52.2952 6.42417V8.35481C52.064 8.47427 51.853 8.56386 51.6623 8.62359C51.4715 8.68332 51.301 8.71319 51.1507 8.71319Z" fill="#04091E"/>
<path d="M16.0206 13.7784V13.6425L15.7957 13.6263L15.7422 13.5794V12.8332L16.4317 11.7294L16.634 11.6873V11.5546H15.9575V11.6873L16.1598 11.7229L16.1906 11.7699L15.6338 12.6552L15.1256 11.744L15.1596 11.7068L15.349 11.6873V11.5546H14.5786V11.6873L14.7809 11.7197L15.4412 12.8769V13.5794L15.3878 13.6263L15.1628 13.6425V13.7784H16.0206ZM17.0285 13.8076C17.253 13.8076 17.4377 13.7301 17.5829 13.5753C17.728 13.4205 17.8005 13.2217 17.8005 12.9789C17.8005 12.7361 17.7283 12.5373 17.5837 12.3825C17.4391 12.2276 17.254 12.1502 17.0285 12.1502C16.8019 12.1502 16.6172 12.2274 16.4742 12.3817C16.3312 12.536 16.2597 12.735 16.2597 12.9789C16.2597 13.2228 16.3318 13.4218 16.4758 13.5761C16.6199 13.7304 16.8041 13.8076 17.0285 13.8076ZM17.0285 13.6651C16.8915 13.6651 16.7809 13.6028 16.6967 13.4782C16.6126 13.3536 16.5705 13.1871 16.5705 12.9789C16.5705 12.7707 16.6123 12.6042 16.6959 12.4796C16.7795 12.355 16.8904 12.2927 17.0285 12.2927C17.1666 12.2927 17.278 12.3552 17.3627 12.4804C17.4474 12.6056 17.4898 12.7717 17.4898 12.9789C17.4898 13.1882 17.4477 13.3549 17.3635 13.479C17.2794 13.6031 17.1677 13.6651 17.0285 13.6651ZM18.5786 13.8108C18.6574 13.8108 18.7407 13.793 18.8287 13.7574C18.9166 13.7218 19.0124 13.6668 19.1159 13.5923V13.7784H19.6063V13.6587L19.451 13.6425L19.3911 13.5891V12.1502H19.2648L18.8796 12.2732V12.3768H19.1159V13.5001C19.0469 13.5335 18.9808 13.5583 18.9177 13.5745C18.8546 13.5907 18.7922 13.5988 18.7307 13.5988C18.6207 13.5988 18.5398 13.5705 18.488 13.5138C18.4362 13.4572 18.4103 13.3684 18.4103 13.2476V12.1502H18.284L17.8988 12.2732V12.3768H18.1351V13.3042C18.1351 13.4682 18.1732 13.5937 18.2492 13.6805C18.3253 13.7674 18.4351 13.8108 18.5786 13.8108ZM20.4864 13.7784V13.6587L20.2549 13.6425L20.1983 13.5891V12.6423C20.2684 12.5592 20.3329 12.4979 20.3917 12.4586C20.4505 12.4192 20.5063 12.3995 20.5592 12.3995C20.5937 12.3995 20.6253 12.4062 20.6539 12.4197C20.6825 12.4332 20.7076 12.4529 20.7292 12.4788H20.8344V12.1939C20.7998 12.1788 20.7664 12.1678 20.734 12.1607C20.7016 12.1537 20.6687 12.1502 20.6353 12.1502C20.6126 12.1502 20.5956 12.1508 20.5843 12.1518C20.573 12.1529 20.5624 12.1551 20.5527 12.1583C20.488 12.2101 20.4262 12.2627 20.3674 12.3161C20.3086 12.3695 20.2522 12.4238 20.1983 12.4788V12.168H20.072L19.6868 12.2862V12.3898H19.9199V13.5891L19.8633 13.6425L19.6868 13.6587V13.7784H20.4864ZM22.9764 13.7784V13.6425L22.753 13.6263L22.698 13.5794V11.7068H23.2046L23.2515 11.7569L23.2968 12.0644H23.4797V11.5546H21.6071V12.0644H21.7884L21.8353 11.7569L21.8823 11.7068H22.3889V13.5794L22.3322 13.6263L22.1105 13.6425V13.7784H22.9764ZM24.0798 13.7784V13.6587L23.8483 13.6425L23.7917 13.5891V12.6423C23.8618 12.5592 23.9263 12.4979 23.9851 12.4586C24.0439 12.4192 24.0997 12.3995 24.1526 12.3995C24.1871 12.3995 24.2187 12.4062 24.2473 12.4197C24.2759 12.4332 24.301 12.4529 24.3225 12.4788H24.4277V12.1939C24.3932 12.1788 24.3598 12.1678 24.3274 12.1607C24.295 12.1537 24.2621 12.1502 24.2287 12.1502C24.206 12.1502 24.189 12.1508 24.1777 12.1518C24.1664 12.1529 24.1558 12.1551 24.1461 12.1583C24.0814 12.2101 24.0196 12.2627 23.9608 12.3161C23.902 12.3695 23.8456 12.4238 23.7917 12.4788V12.168H23.6654L23.2802 12.2862V12.3898H23.5133V13.5891L23.4566 13.6425L23.2802 13.6587V13.7784H24.0798ZM25.1022 13.8108C25.181 13.8108 25.2643 13.793 25.3523 13.7574C25.4402 13.7218 25.536 13.6668 25.6396 13.5923V13.7784H26.13V13.6587L25.9746 13.6425L25.9147 13.5891V12.1502H25.7885L25.4033 12.2732V12.3768H25.6396V13.5001C25.5705 13.5335 25.5044 13.5583 25.4413 13.5745C25.3782 13.5907 25.3159 13.5988 25.2544 13.5988C25.1443 13.5988 25.0634 13.5705 25.0116 13.5138C24.9598 13.4572 24.9339 13.3684 24.9339 13.2476V12.1502H24.8077L24.4225 12.2732V12.3768H24.6588V13.3042C24.6588 13.4682 24.6968 13.5937 24.7729 13.6805C24.8489 13.7674 24.9587 13.8108 25.1022 13.8108ZM26.6814 13.8076C26.8757 13.8076 27.0275 13.7636 27.137 13.6757C27.2466 13.5877 27.3013 13.4661 27.3013 13.3107C27.3013 13.2513 27.2905 13.1971 27.2689 13.148C27.2474 13.0989 27.2161 13.0582 27.1751 13.0258C27.119 12.9794 27.0283 12.9276 26.9032 12.8705C26.8676 12.8543 26.8411 12.8419 26.8239 12.8332C26.7138 12.7804 26.6394 12.7323 26.6005 12.6892C26.5617 12.646 26.5422 12.5937 26.5422 12.5322C26.5422 12.4567 26.5665 12.3979 26.6151 12.3558C26.6636 12.3137 26.7311 12.2927 26.8174 12.2927C26.8573 12.2927 26.8972 12.2986 26.9372 12.3105C26.9771 12.3223 27.0192 12.3401 27.0634 12.3639L27.0893 12.5986H27.2528V12.2231C27.1967 12.1993 27.1365 12.1812 27.0723 12.1688C27.0081 12.1564 26.9388 12.1502 26.8643 12.1502C26.6777 12.1502 26.5331 12.1907 26.4306 12.2716C26.3281 12.3525 26.2768 12.4669 26.2768 12.6147C26.2768 12.7118 26.3068 12.7933 26.3666 12.8591C26.4265 12.9249 26.5395 12.9951 26.7057 13.0695C26.8525 13.1364 26.9452 13.1917 26.9841 13.2354C27.0229 13.2791 27.0424 13.3344 27.0424 13.4013C27.0424 13.4812 27.014 13.5456 26.9574 13.5947C26.9007 13.6438 26.8255 13.6684 26.7316 13.6684C26.6841 13.6684 26.6369 13.6619 26.59 13.649C26.5431 13.636 26.4964 13.616 26.45 13.5891L26.4095 13.3075H26.2509V13.738C26.3124 13.7617 26.3796 13.7792 26.4524 13.7906C26.5252 13.8019 26.6016 13.8076 26.6814 13.8076ZM27.9629 13.7881C28.0308 13.7881 28.1015 13.7819 28.1749 13.7695C28.2482 13.7571 28.3227 13.7391 28.3982 13.7153V13.5923C28.3572 13.602 28.3176 13.609 28.2793 13.6133C28.241 13.6177 28.204 13.6198 28.1684 13.6198C28.0648 13.6198 27.9931 13.5953 27.9531 13.5462C27.9132 13.4971 27.8933 13.4008 27.8933 13.2573V12.3833H28.3982V12.2279H27.8933V11.8751H27.7703L27.6278 12.1842L27.4093 12.2797V12.3833H27.6181V13.4531C27.6181 13.5804 27.6437 13.6681 27.695 13.7161C27.7462 13.7641 27.8355 13.7881 27.9629 13.7881ZM29.1844 13.8076C29.2912 13.8076 29.3975 13.7908 29.5032 13.7574C29.609 13.7239 29.7109 13.6748 29.8091 13.6101V13.4272C29.7099 13.493 29.6179 13.5416 29.5332 13.5729C29.4485 13.6042 29.3667 13.6198 29.288 13.6198C29.1175 13.6198 28.9821 13.5591 28.8817 13.4377C28.7814 13.3164 28.7312 13.1515 28.7312 12.9433V12.9061H29.8043C29.8064 12.8931 29.8078 12.8796 29.8083 12.8656C29.8089 12.8516 29.8091 12.8311 29.8091 12.8041C29.8091 12.6023 29.7554 12.4429 29.6481 12.3258C29.5407 12.2088 29.3953 12.1502 29.2119 12.1502C28.9875 12.1502 28.8038 12.2287 28.6608 12.3857C28.5178 12.5427 28.4463 12.7453 28.4463 12.9935C28.4463 13.2352 28.5146 13.4313 28.6511 13.5818C28.7876 13.7323 28.9653 13.8076 29.1844 13.8076ZM29.5129 12.7669H28.7474C28.7571 12.632 28.8021 12.5206 28.8825 12.4327C28.9629 12.3447 29.0581 12.3007 29.1682 12.3007C29.2804 12.3007 29.3659 12.3364 29.4247 12.4076C29.4835 12.4788 29.5129 12.5813 29.5129 12.7151V12.7669ZM30.6001 13.8076C30.6897 13.8076 30.7755 13.7914 30.8575 13.759C30.9395 13.7266 31.0236 13.6759 31.11 13.6069V13.7784H31.6004V13.6587L31.4418 13.6425L31.3851 13.5891V11.3394H31.2605L30.8559 11.4575V11.5611H31.11V12.1842C31.0571 12.1723 31.0058 12.1632 30.9562 12.1567C30.9066 12.1502 30.8596 12.147 30.8154 12.147C30.5618 12.147 30.356 12.2287 30.1979 12.3922C30.0399 12.5557 29.9608 12.769 29.9608 13.0323C29.9608 13.2589 30.021 13.4448 30.1413 13.5899C30.2616 13.735 30.4145 13.8076 30.6001 13.8076ZM30.749 13.5988C30.598 13.5988 30.4774 13.5427 30.3873 13.4305C30.2972 13.3182 30.2522 13.1666 30.2522 12.9757C30.2522 12.7707 30.3042 12.6056 30.4083 12.4804C30.5125 12.3552 30.6492 12.2927 30.8186 12.2927C30.8564 12.2927 30.8993 12.2972 30.9473 12.3064C30.9953 12.3156 31.0495 12.3288 31.11 12.3461V13.4839C31.0474 13.5227 30.9861 13.5516 30.9263 13.5705C30.8664 13.5893 30.8073 13.5988 30.749 13.5988ZM33.6938 13.8189C33.8039 13.8189 33.9156 13.8089 34.0289 13.789C34.1422 13.769 34.2533 13.7401 34.3623 13.7024V13.178H34.1842L34.1033 13.547L34.0515 13.5988C34.003 13.6139 33.9547 13.6249 33.9067 13.632C33.8586 13.639 33.8109 13.6425 33.7634 13.6425C33.4926 13.6425 33.2806 13.5537 33.1274 13.3762C32.9741 13.1987 32.8975 12.9541 32.8975 12.6423C32.8975 12.3488 32.9709 12.1168 33.1176 11.9463C33.2644 11.7758 33.4629 11.6906 33.7133 11.6906C33.7758 11.6906 33.8373 11.6976 33.8978 11.7116C33.9582 11.7256 34.0202 11.7472 34.0839 11.7764L34.1276 11.8362L34.1778 12.1373H34.3623V11.6275C34.2436 11.5897 34.1295 11.5614 34.02 11.5425C33.9104 11.5236 33.806 11.5142 33.7068 11.5142C33.3615 11.5142 33.0834 11.6196 32.8724 11.8306C32.6615 12.0415 32.556 12.3196 32.556 12.6649C32.556 12.8807 32.607 13.0795 32.709 13.2613C32.8109 13.4431 32.9509 13.5848 33.129 13.6862C33.2067 13.7293 33.293 13.7622 33.3879 13.7849C33.4829 13.8076 33.5849 13.8189 33.6938 13.8189ZM35.163 13.8108C35.2418 13.8108 35.3251 13.793 35.413 13.7574C35.501 13.7218 35.5967 13.6668 35.7003 13.5923V13.7784H36.1907V13.6587L36.0354 13.6425L35.9755 13.5891V12.1502H35.8492L35.464 12.2732V12.3768H35.7003V13.5001C35.6313 13.5335 35.5652 13.5583 35.5021 13.5745C35.4389 13.5907 35.3766 13.5988 35.3151 13.5988C35.2051 13.5988 35.1241 13.5705 35.0724 13.5138C35.0206 13.4572 34.9947 13.3684 34.9947 13.2476V12.1502H34.8684L34.4832 12.2732V12.3768H34.7195V13.3042C34.7195 13.4682 34.7576 13.5937 34.8336 13.6805C34.9097 13.7674 35.0195 13.8108 35.163 13.8108ZM37.0708 13.7784V13.6587L36.8393 13.6425L36.7827 13.5891V12.6423C36.8528 12.5592 36.9173 12.4979 36.9761 12.4586C37.0349 12.4192 37.0907 12.3995 37.1436 12.3995C37.1781 12.3995 37.2097 12.4062 37.2383 12.4197C37.2669 12.4332 37.292 12.4529 37.3135 12.4788H37.4187V12.1939C37.3842 12.1788 37.3508 12.1678 37.3184 12.1607C37.286 12.1537 37.2531 12.1502 37.2197 12.1502C37.197 12.1502 37.18 12.1508 37.1687 12.1518C37.1574 12.1529 37.1468 12.1551 37.1371 12.1583C37.0724 12.2101 37.0106 12.2627 36.9518 12.3161C36.893 12.3695 36.8366 12.4238 36.7827 12.4788V12.168H36.6564L36.2712 12.2862V12.3898H36.5043V13.5891L36.4476 13.6425L36.2712 13.6587V13.7784H37.0708ZM38.2259 13.7784V13.6587L37.9945 13.6425L37.9378 13.5891V12.6423C38.008 12.5592 38.0725 12.4979 38.1313 12.4586C38.1901 12.4192 38.2459 12.3995 38.2988 12.3995C38.3333 12.3995 38.3649 12.4062 38.3935 12.4197C38.422 12.4332 38.4471 12.4529 38.4687 12.4788H38.5739V12.1939C38.5394 12.1788 38.5059 12.1678 38.4736 12.1607C38.4412 12.1537 38.4083 12.1502 38.3748 12.1502C38.3522 12.1502 38.3352 12.1508 38.3239 12.1518C38.3125 12.1529 38.302 12.1551 38.2923 12.1583C38.2276 12.2101 38.1658 12.2627 38.107 12.3161C38.0482 12.3695 37.9918 12.4238 37.9378 12.4788V12.168H37.8116L37.4264 12.2862V12.3898H37.6595V13.5891L37.6028 13.6425L37.4264 13.6587V13.7784H38.2259ZM38.9927 11.8136C39.0466 11.8136 39.0922 11.7952 39.1294 11.7586C39.1667 11.7219 39.1853 11.6771 39.1853 11.6242C39.1853 11.5713 39.1667 11.526 39.1294 11.4883C39.0922 11.4505 39.0466 11.4316 38.9927 11.4316C38.9398 11.4316 38.8948 11.4502 38.8575 11.4875C38.8203 11.5247 38.8017 11.5703 38.8017 11.6242C38.8017 11.6771 38.8203 11.7219 38.8575 11.7586C38.8948 11.7952 38.9398 11.8136 38.9927 11.8136ZM39.3439 13.7784V13.6587L39.1659 13.6425L39.1092 13.5891V12.168H38.9797L38.5994 12.2862V12.3898H38.8308V13.5891L38.7742 13.6425L38.5994 13.6587V13.7784H39.3439ZM40.1608 13.8076C40.2676 13.8076 40.3739 13.7908 40.4796 13.7574C40.5854 13.7239 40.6873 13.6748 40.7855 13.6101V13.4272C40.6863 13.493 40.5943 13.5416 40.5096 13.5729C40.4249 13.6042 40.3431 13.6198 40.2644 13.6198C40.0939 13.6198 39.9585 13.5591 39.8581 13.4377C39.7578 13.3164 39.7076 13.1515 39.7076 12.9433V12.9061H40.7807C40.7828 12.8931 40.7842 12.8796 40.7847 12.8656C40.7853 12.8516 40.7855 12.8311 40.7855 12.8041C40.7855 12.6023 40.7319 12.4429 40.6245 12.3258C40.5171 12.2088 40.3717 12.1502 40.1883 12.1502C39.9639 12.1502 39.7802 12.2287 39.6372 12.3857C39.4942 12.5427 39.4228 12.7453 39.4228 12.9935C39.4228 13.2352 39.491 13.4313 39.6275 13.5818C39.764 13.7323 39.9418 13.8076 40.1608 13.8076ZM40.4893 12.7669H39.7238C39.7335 12.632 39.7786 12.5206 39.8589 12.4327C39.9393 12.3447 40.0345 12.3007 40.1446 12.3007C40.2568 12.3007 40.3423 12.3364 40.4011 12.4076C40.4599 12.4788 40.4893 12.5813 40.4893 12.7151V12.7669ZM41.7157 13.7784V13.6587L41.4843 13.6425L41.4276 13.5891V12.6423C41.4978 12.5592 41.5623 12.4979 41.6211 12.4586C41.6799 12.4192 41.7357 12.3995 41.7886 12.3995C41.8231 12.3995 41.8547 12.4062 41.8833 12.4197C41.9118 12.4332 41.9369 12.4529 41.9585 12.4788H42.0637V12.1939C42.0292 12.1788 41.9957 12.1678 41.9634 12.1607C41.931 12.1537 41.8981 12.1502 41.8646 12.1502C41.842 12.1502 41.825 12.1508 41.8137 12.1518C41.8023 12.1529 41.7918 12.1551 41.7821 12.1583C41.7174 12.2101 41.6556 12.2627 41.5968 12.3161C41.538 12.3695 41.4816 12.4238 41.4276 12.4788V12.168H41.3014L40.9162 12.2862V12.3898H41.1493V13.5891L41.0926 13.6425L40.9162 13.6587V13.7784H41.7157Z" fill="#04091E"/>
</svg>
